<?xml version="1.0" encoding="utf-8"?>
<svg version="1.1" xmlns:xlink="http://www.w3.org/1999/xlink" width="228px" height="40px" xmlns="http://www.w3.org/2000/svg">
  <g transform="matrix(1 0 0 1 -443 -9 )">
    <path d="M 443.5 14  A 4.5 4.5 0 0 1 448 9.5 L 666 9.5  A 4.5 4.5 0 0 1 670.5 14 L 670.5 44  A 4.5 4.5 0 0 1 666 48.5 L 448 48.5  A 4.5 4.5 0 0 1 443.5 44 L 443.5 14  Z " fill-rule="nonzero" fill="#111821" stroke="none" />
    <path d="M 443.5 14  A 4.5 4.5 0 0 1 448 9.5 L 666 9.5  A 4.5 4.5 0 0 1 670.5 14 L 670.5 44  A 4.5 4.5 0 0 1 666 48.5 L 448 48.5  A 4.5 4.5 0 0 1 443.5 44 L 443.5 14  Z " stroke-width="1" stroke="#007470" fill="none" />
  </g>
</svg>