<?xml version="1.0" encoding="utf-8"?>
<svg version="1.1" xmlns:xlink="http://www.w3.org/1999/xlink" width="332px" height="40px" xmlns="http://www.w3.org/2000/svg">
  <g transform="matrix(1 0 0 1 -97 -63 )">
    <path d="M 97.5 68  A 4.5 4.5 0 0 1 102 63.5 L 424 63.5  A 4.5 4.5 0 0 1 428.5 68 L 428.5 98  A 4.5 4.5 0 0 1 424 102.5 L 102 102.5  A 4.5 4.5 0 0 1 97.5 98 L 97.5 68  Z " fill-rule="nonzero" fill="#1e2634" stroke="none" />
    <path d="M 97.5 68  A 4.5 4.5 0 0 1 102 63.5 L 424 63.5  A 4.5 4.5 0 0 1 428.5 68 L 428.5 98  A 4.5 4.5 0 0 1 424 102.5 L 102 102.5  A 4.5 4.5 0 0 1 97.5 98 L 97.5 68  Z " stroke-width="1" stroke="#007470" fill="none" />
  </g>
</svg>