<?xml version="1.0" encoding="utf-8"?>
<svg version="1.1" xmlns:xlink="http://www.w3.org/1999/xlink" width="209px" height="26px" xmlns="http://www.w3.org/2000/svg">
  <g transform="matrix(1 0 0 1 -1031 -13 )">
    <path d="M 1031.5 18  A 4.5 4.5 0 0 1 1036 13.5 L 1235 13.5  A 4.5 4.5 0 0 1 1239.5 18 L 1239.5 34  A 4.5 4.5 0 0 1 1235 38.5 L 1036 38.5  A 4.5 4.5 0 0 1 1031.5 34 L 1031.5 18  Z " fill-rule="nonzero" fill="#ffffff" stroke="none" />
    <path d="M 1031.5 18  A 4.5 4.5 0 0 1 1036 13.5 L 1235 13.5  A 4.5 4.5 0 0 1 1239.5 18 L 1239.5 34  A 4.5 4.5 0 0 1 1235 38.5 L 1036 38.5  A 4.5 4.5 0 0 1 1031.5 34 L 1031.5 18  Z " stroke-width="1" stroke="#007470" fill="none" />
  </g>
</svg>