<?xml version="1.0" encoding="utf-8"?>
<svg version="1.1" xmlns:xlink="http://www.w3.org/1999/xlink" width="209px" height="26px" xmlns="http://www.w3.org/2000/svg">
  <g transform="matrix(1 0 0 1 -1031 -13 )">
    <path d="M 1032 18  A 4 4 0 0 1 1036 14 L 1235 14  A 4 4 0 0 1 1239 18 L 1239 34  A 4 4 0 0 1 1235 38 L 1036 38  A 4 4 0 0 1 1032 34 L 1032 18  Z " fill-rule="nonzero" fill="#ffffff" stroke="none" />
    <path d="M 1031.5 18  A 4.5 4.5 0 0 1 1036 13.5 L 1235 13.5  A 4.5 4.5 0 0 1 1239.5 18 L 1239.5 34  A 4.5 4.5 0 0 1 1235 38.5 L 1036 38.5  A 4.5 4.5 0 0 1 1031.5 34 L 1031.5 18  Z " stroke-width="1" stroke="#999999" fill="none" stroke-opacity="0.207843137254902" />
  </g>
</svg>