<?xml version="1.0" encoding="utf-8"?>
<svg version="1.1" xmlns:xlink="http://www.w3.org/1999/xlink" width="269px" height="37px" xmlns="http://www.w3.org/2000/svg">
  <g>
    <path d="M 0.5 5  A 4.5 4.5 0 0 1 5 0.5 L 264 0.5  A 4.5 4.5 0 0 1 268.5 5 L 268.5 32  A 4.5 4.5 0 0 1 264 36.5 L 5 36.5  A 4.5 4.5 0 0 1 0.5 32 L 0.5 5  Z " fill-rule="nonzero" fill="#1e2634" stroke="none" />
    <path d="M 0.5 5  A 4.5 4.5 0 0 1 5 0.5 L 264 0.5  A 4.5 4.5 0 0 1 268.5 5 L 268.5 32  A 4.5 4.5 0 0 1 264 36.5 L 5 36.5  A 4.5 4.5 0 0 1 0.5 32 L 0.5 5  Z " stroke-width="1" stroke="#007470" fill="none" />
  </g>
</svg>