<?xml version="1.0" encoding="utf-8"?>
<svg version="1.1" xmlns:xlink="http://www.w3.org/1999/xlink" width="26px" height="22px" xmlns="http://www.w3.org/2000/svg">
  <g transform="matrix(1 0 0 1 -1179 -180 )">
    <path d="M 14.7154788418708 18.4897836538462  C 14.8071640682999 18.4060496794872  14.8530066815145 18.302483974359  14.8530066815145 18.1790865384615  L 14.8530066815145 15.6670673076923  C 14.8530066815145 15.5436698717949  14.8071640682999 15.4401041666667  14.7154788418708 15.3563701923077  C 14.6237936154417 15.2726362179487  14.5152190051967 15.2307692307692  14.3897550111359 15.2307692307692  L 11.6102449888641 15.2307692307692  C 11.4847809948033 15.2307692307692  11.3762063845583 15.2726362179487  11.2845211581292 15.3563701923077  C 11.1928359317001 15.4401041666667  11.1469933184855 15.5436698717949  11.1469933184855 15.6670673076923  L 11.1469933184855 18.1790865384615  C 11.1469933184855 18.302483974359  11.1928359317001 18.4060496794872  11.2845211581292 18.4897836538462  C 11.3762063845583 18.5735176282051  11.4847809948033 18.6153846153846  11.6102449888641 18.6153846153846  L 14.3897550111359 18.6153846153846  C 14.5152190051967 18.6153846153846  14.6237936154417 18.5735176282051  14.7154788418708 18.4897836538462  Z M 14.6720489977728 13.4525240384615  C 14.7637342242019 13.3952323717949  14.8144023756496 13.322516025641  14.8240534521158 13.234375  L 15.0846325167038 7.16586538461539  C 15.0846325167038 7.06009615384615  15.0363771343727 6.97636217948718  14.9398663697105 6.91466346153846  C 14.8144023756496 6.81770833333333  14.6985894580549 6.76923076923077  14.5924276169265 6.76923076923077  L 11.4075723830735 6.76923076923077  C 11.3014105419451 6.76923076923077  11.1855976243504 6.81770833333333  11.0601336302895 6.91466346153846  C 10.9636228656273 6.97636217948718  10.9153674832962 7.06891025641025  10.9153674832962 7.19230769230769  L 11.1614699331849 13.234375  C 11.1614699331849 13.322516025641  11.209725315516 13.3952323717949  11.3062360801782 13.4525240384615  C 11.4027468448404 13.5098157051282  11.518559762435 13.5384615384615  11.6536748329621 13.5384615384615  L 14.3318485523385 13.5384615384615  C 14.4669636228656 13.5384615384615  14.5803637713437 13.5098157051282  14.6720489977728 13.4525240384615  Z M 13.9409799554566 0.23798076923077  C 14.2305122494432 0.396634615384615  14.4573125463994 0.612580128205127  14.6213808463252 0.885817307692309  L 25.739420935412 19.5012019230769  C 26.0772086117298 20.0564903846154  26.0675575352636 20.6117788461538  25.7104677060134 21.1670673076923  C 25.5463994060876 21.4226762820513  25.322011878248 21.6254006410256  25.0373051224944 21.7752403846154  C 24.7525983667409 21.9250801282051  24.4461766889384 22  24.1180400890869 22  L 1.88195991091314 22  C 1.55382331106162 22  1.24740163325909 21.9250801282051  0.962694877505568 21.7752403846154  C 0.677988121752042 21.6254006410256  0.453600593912398 21.4226762820513  0.289532293986637 21.1670673076923  C -0.0675575352635486 20.6117788461538  -0.0772086117297699 20.0564903846154  0.260579064587973 19.5012019230769  L 11.3786191536748 0.885817307692309  C 11.5426874536006 0.612580128205127  11.7694877505568 0.396634615384615  12.0590200445434 0.23798076923077  C 12.3485523385301 0.079326923076924  12.6622123236823 0  13 0  C 13.3377876763177 0  13.6514476614699 0.079326923076924  13.9409799554566 0.23798076923077  Z " fill-rule="nonzero" fill="#ac0000" stroke="none" transform="matrix(1 0 0 1 1179 180 )" />
  </g>
</svg>