<?xml version="1.0" encoding="utf-8"?>
<svg version="1.1" xmlns:xlink="http://www.w3.org/1999/xlink" width="25px" height="24px" xmlns="http://www.w3.org/2000/svg">
  <g transform="matrix(1 0 0 1 -1179 -223 )">
    <path d="M 24.9444444444445 11.9999761904762  C 24.9444444444445 5.40195238095237  19.3728174603174 0.0533095238095232  12.5 0.0533095238095232  C 5.62690972222222 0.0533095238095232  0.0555555555555896 5.40195238095237  0.0555555555555896 11.9999761904762  C 0.0555555555555896 18.5980238095238  5.62690972222222 23.9466428571429  12.5 23.9466428571429  C 19.3728174603174 23.9466428571429  24.9444444444445 18.5980238095238  24.9444444444445 11.9999761904762  Z M 20.2542658730159 9.06766666666666  L 11.5458581349206 17.1290714285714  C 11.4335837590897 17.2369879923487  11.3029571825032 17.3257288476548  11.1595982142857 17.3914761904762  C 10.6127232142857 17.7665714285714  9.84813988095239 17.7187380952381  9.35716765873012 17.2473333333333  L 5.61748511904762 13.6571666666667  C 5.07063492063493 13.1322142857143  5.07063492063493 12.2813095238095  5.61748511904762 11.7565714285714  C 6.1640376984127 11.2315714285714  7.05044642857146 11.2315714285714  7.59727182539679 11.7565714285714  L 10.4049851190476 14.4518571428571  L 18.274429563492 7.16690476190476  C 18.8212053571429 6.64207142857144  19.7076636904762 6.64207142857144  20.2542162698413 7.16690476190476  C 20.8010912698413 7.69178571428571  20.8010912698413 8.5427857142857  20.2542658730159 9.06764285714287  Z " fill-rule="nonzero" fill="#00b900" stroke="none" transform="matrix(1 0 0 1 1179 223 )" />
  </g>
</svg>