<?xml version="1.0" encoding="utf-8"?>
<svg version="1.1" xmlns:xlink="http://www.w3.org/1999/xlink" width="15px" height="15px" xmlns="http://www.w3.org/2000/svg">
  <g transform="matrix(1 0 0 1 -18 -15 )">
    <path d="M 14.7970426829268 14.7774542682927  C 14.9360518292683 14.6389329268293  14.9360518292683 14.4139634146341  14.7972865853658 14.2751829268293  L 8.0111432926829 7.49329268292684  L 14.7927896341463 0.707393292682923  C 14.9315548780488 0.568628048780482  14.9315548780488 0.343658536585366  14.7927896341463 0.205121951219525  C 14.6540243902439 0.0663567073170839  14.4290548780488 0.0663567073170839  14.2905182926829 0.205121951219525  L 7.50862804878051 6.99126524390243  L 0.722484756097572 0.209374999999994  C 0.583719512195103 0.0706097560975536  0.358749999999986 0.0706097560975536  0.220213414634145 0.209374999999994  C 0.0814481707317327 0.348140243902435  0.0814481707317327 0.573109756097551  0.220213414634145 0.711890243902445  L 7.00635670731708 7.49378048780488  L 0.224710365853639 14.2796798780488  C 0.0859451219512266 14.4184451219512  0.0859451219512266 14.6434146341464  0.224710365853639 14.7819512195122  C 0.363475609756108 14.9207164634146  0.588445121951224 14.9207164634146  0.726981707317066 14.7819512195122  L 7.50887195121953 7.99580792682926  L 14.2947713414634 14.7774542682927  C 14.4335365853659 14.9162195121951  14.658506097561 14.9162195121951  14.7970426829268 14.7774542682927  Z " fill-rule="nonzero" fill="#333333" stroke="none" transform="matrix(1 0 0 1 18 15 )" />
  </g>
</svg>