<?xml version="1.0" encoding="utf-8"?>
<svg version="1.1" xmlns:xlink="http://www.w3.org/1999/xlink" width="146px" height="146px" xmlns="http://www.w3.org/2000/svg">
  <g transform="matrix(1 0 0 1 -230 -627 )">
    <path d="M 303 627  C 343.88 627  376 659.12  376 700  C 376 740.88  343.88 773  303 773  C 262.12 773  230 740.88  230 700  C 230 659.12  262.12 627  303 627  Z " fill-rule="nonzero" fill="#ffffff" stroke="none" fill-opacity="0" />
    <path d="M 303 627.5  C 343.6 627.5  375.5 659.4  375.5 700  C 375.5 740.6  343.6 772.5  303 772.5  C 262.4 772.5  230.5 740.6  230.5 700  C 230.5 659.4  262.4 627.5  303 627.5  Z " stroke-width="1" stroke="#105c69" fill="none" />
  </g>
</svg>