<?xml version="1.0" encoding="utf-8"?>
<svg version="1.1" xmlns:xlink="http://www.w3.org/1999/xlink" width="381px" height="245px" xmlns="http://www.w3.org/2000/svg">
  <g transform="matrix(1 0 0 1 -680 -619 )">
    <path d="M 681 623  A 3 3 0 0 1 684 620 L 1057 620  A 3 3 0 0 1 1060 623 L 1060 860  A 3 3 0 0 1 1057 863 L 684 863  A 3 3 0 0 1 681 860 L 681 623  Z " fill-rule="nonzero" fill="#ff3399" stroke="none" fill-opacity="0.0980392156862745" />
    <path d="M 680.5 623  A 3.5 3.5 0 0 1 684 619.5 L 1057 619.5  A 3.5 3.5 0 0 1 1060.5 623 L 1060.5 860  A 3.5 3.5 0 0 1 1057 863.5 L 684 863.5  A 3.5 3.5 0 0 1 680.5 860 L 680.5 623  Z " stroke-width="1" stroke-dasharray="9,4" stroke="#ff3399" fill="none" stroke-dashoffset="0.5" />
  </g>
</svg>