<?xml version="1.0" encoding="utf-8"?>
<svg version="1.1" xmlns:xlink="http://www.w3.org/1999/xlink" width="20px" height="20px" xmlns="http://www.w3.org/2000/svg">
  <g transform="matrix(1 0 0 1 -1789 -11 )">
    <path d="M 1799 11  C 1804.6 11  1809 15.4  1809 21  C 1809 26.6  1804.6 31  1799 31  C 1793.4 31  1789 26.6  1789 21  C 1789 15.4  1793.4 11  1799 11  Z " fill-rule="nonzero" fill="#ffffff" stroke="none" />
    <path d="M 1799 11.5  C 1804.32 11.5  1808.5 15.68  1808.5 21  C 1808.5 26.32  1804.32 30.5  1799 30.5  C 1793.68 30.5  1789.5 26.32  1789.5 21  C 1789.5 15.68  1793.68 11.5  1799 11.5  Z " stroke-width="1" stroke="#797979" fill="none" />
  </g>
</svg>