<?xml version="1.0" encoding="utf-8"?>
<svg version="1.1" xmlns:xlink="http://www.w3.org/1999/xlink" width="12px" height="12px" viewBox="92 741  12 12" xmlns="http://www.w3.org/2000/svg">
  <path d="M 98 741  C 101.36 741  104 743.64  104 747  C 104 750.36  101.36 753  98 753  C 94.64 753  92 750.36  92 747  C 92 743.64  94.64 741  98 741  Z " fill-rule="nonzero" fill="#f0f0f0" stroke="none" />
  <path d="M 98 741.5  C 101.08 741.5  103.5 743.92  103.5 747  C 103.5 750.08  101.08 752.5  98 752.5  C 94.92 752.5  92.5 750.08  92.5 747  C 92.5 743.92  94.92 741.5  98 741.5  Z " stroke-width="1" stroke="#797979" fill="none" />
  <path d="M 98 750  C 96.32 750  95 748.68  95 747  C 95 745.32  96.32 744  98 744  C 99.68 744  101 745.32  101 747  C 101 748.68  99.68 750  98 750  " fill-rule="nonzero" fill="#797979" stroke="none" />
</svg>