<?xml version="1.0" encoding="utf-8"?>
<svg version="1.1" xmlns:xlink="http://www.w3.org/1999/xlink" width="12px" height="12px" viewBox="92 715  12 12" xmlns="http://www.w3.org/2000/svg">
  <path d="M 98 715  C 101.36 715  104 717.64  104 721  C 104 724.36  101.36 727  98 727  C 94.64 727  92 724.36  92 721  C 92 717.64  94.64 715  98 715  Z " fill-rule="nonzero" fill="#ffffff" stroke="none" />
  <path d="M 98 715.5  C 101.08 715.5  103.5 717.92  103.5 721  C 103.5 724.08  101.08 726.5  98 726.5  C 94.92 726.5  92.5 724.08  92.5 721  C 92.5 717.92  94.92 715.5  98 715.5  Z " stroke-width="1" stroke="#797979" fill="none" />
  <path d="M 98 724  C 96.32 724  95 722.68  95 721  C 95 719.32  96.32 718  98 718  C 99.68 718  101 719.32  101 721  C 101 722.68  99.68 724  98 724  " fill-rule="nonzero" fill="#797979" stroke="none" />
</svg>