<?xml version="1.0" encoding="utf-8"?>
<svg version="1.1" xmlns:xlink="http://www.w3.org/1999/xlink" width="12px" height="12px" viewBox="554 91  12 12" xmlns="http://www.w3.org/2000/svg">
  <path d="M 560 91  C 563.36 91  566 93.64  566 97  C 566 100.36  563.36 103  560 103  C 556.64 103  554 100.36  554 97  C 554 93.64  556.64 91  560 91  Z " fill-rule="nonzero" fill="#f0f0f0" stroke="none" />
  <path d="M 560 91.5  C 563.08 91.5  565.5 93.92  565.5 97  C 565.5 100.08  563.08 102.5  560 102.5  C 556.92 102.5  554.5 100.08  554.5 97  C 554.5 93.92  556.92 91.5  560 91.5  Z " stroke-width="1" stroke="#797979" fill="none" />
  <path d="M 560 100  C 558.32 100  557 98.68  557 97  C 557 95.32  558.32 94  560 94  C 561.68 94  563 95.32  563 97  C 563 98.68  561.68 100  560 100  " fill-rule="nonzero" fill="#797979" stroke="none" />
</svg>