<?xml version="1.0" encoding="utf-8"?>
<svg version="1.1" xmlns:xlink="http://www.w3.org/1999/xlink" width="12px" height="12px" viewBox="676 91  12 12" xmlns="http://www.w3.org/2000/svg">
  <path d="M 682 91  C 685.36 91  688 93.64  688 97  C 688 100.36  685.36 103  682 103  C 678.64 103  676 100.36  676 97  C 676 93.64  678.64 91  682 91  Z " fill-rule="nonzero" fill="#f0f0f0" stroke="none" />
  <path d="M 682 91.5  C 685.08 91.5  687.5 93.92  687.5 97  C 687.5 100.08  685.08 102.5  682 102.5  C 678.92 102.5  676.5 100.08  676.5 97  C 676.5 93.92  678.92 91.5  682 91.5  Z " stroke-width="1" stroke="#797979" fill="none" />
  <path d="M 682 100  C 680.32 100  679 98.68  679 97  C 679 95.32  680.32 94  682 94  C 683.68 94  685 95.32  685 97  C 685 98.68  683.68 100  682 100  " fill-rule="nonzero" fill="#797979" stroke="none" />
</svg>