<?xml version="1.0" encoding="utf-8"?>
<svg version="1.1" xmlns:xlink="http://www.w3.org/1999/xlink" width="269px" height="74px" xmlns="http://www.w3.org/2000/svg">
  <g transform="matrix(1 0 0 1 -15 -819 )">
    <path d="M 15.5 824  A 4.5 4.5 0 0 1 20 819.5 L 279 819.5  A 4.5 4.5 0 0 1 283.5 824 L 283.5 888  A 4.5 4.5 0 0 1 279 892.5 L 20 892.5  A 4.5 4.5 0 0 1 15.5 888 L 15.5 824  Z " fill-rule="nonzero" fill="#1e2634" stroke="none" />
    <path d="M 15.5 824  A 4.5 4.5 0 0 1 20 819.5 L 279 819.5  A 4.5 4.5 0 0 1 283.5 824 L 283.5 888  A 4.5 4.5 0 0 1 279 892.5 L 20 892.5  A 4.5 4.5 0 0 1 15.5 888 L 15.5 824  Z " stroke-width="1" stroke="#cccccc" fill="none" />
  </g>
</svg>