<?xml version="1.0" encoding="utf-8"?>
<svg version="1.1" xmlns:xlink="http://www.w3.org/1999/xlink" width="274px" height="40px" xmlns="http://www.w3.org/2000/svg">
  <g transform="matrix(1 0 0 1 -11 -49 )">
    <path d="M 12 54  A 4 4 0 0 1 16 50 L 280 50  A 4 4 0 0 1 284 54 L 284 84  A 4 4 0 0 1 280 88 L 16 88  A 4 4 0 0 1 12 84 L 12 54  Z " fill-rule="nonzero" fill="#111821" stroke="none" />
    <path d="M 11.5 54  A 4.5 4.5 0 0 1 16 49.5 L 280 49.5  A 4.5 4.5 0 0 1 284.5 54 L 284.5 84  A 4.5 4.5 0 0 1 280 88.5 L 16 88.5  A 4.5 4.5 0 0 1 11.5 84 L 11.5 54  Z " stroke-width="1" stroke="#999999" fill="none" stroke-opacity="0.207843137254902" />
  </g>
</svg>