<?xml version="1.0" encoding="utf-8"?>
<svg version="1.1" xmlns:xlink="http://www.w3.org/1999/xlink" width="13px" height="8px" xmlns="http://www.w3.org/2000/svg">
  <g transform="matrix(1 0 0 1 -1256 -701 )">
    <path d="M 1262.5 701  C 1266.14 701  1269 702.76  1269 705  C 1269 707.24  1266.14 709  1262.5 709  C 1258.86 709  1256 707.24  1256 705  C 1256 702.76  1258.86 701  1262.5 701  Z " fill-rule="nonzero" fill="#6eb547" stroke="none" />
    <path d="M 1262.5 701.5  C 1265.86 701.5  1268.5 703.04  1268.5 705  C 1268.5 706.96  1265.86 708.5  1262.5 708.5  C 1259.14 708.5  1256.5 706.96  1256.5 705  C 1256.5 703.04  1259.14 701.5  1262.5 701.5  Z " stroke-width="1" stroke="#6eb547" fill="none" />
  </g>
</svg>