<?xml version="1.0" encoding="utf-8"?>
<svg version="1.1" xmlns:xlink="http://www.w3.org/1999/xlink" width="13px" height="7px" xmlns="http://www.w3.org/2000/svg">
  <g transform="matrix(1 0 0 1 -1408 -810 )">
    <path d="M 1414.5 810  C 1418.14 810  1421 811.54  1421 813.5  C 1421 815.46  1418.14 817  1414.5 817  C 1410.86 817  1408 815.46  1408 813.5  C 1408 811.54  1410.86 810  1414.5 810  Z " fill-rule="nonzero" fill="#1890ff" stroke="none" />
    <path d="M 1414.5 810.5  C 1417.86 810.5  1420.5 811.82  1420.5 813.5  C 1420.5 815.18  1417.86 816.5  1414.5 816.5  C 1411.14 816.5  1408.5 815.18  1408.5 813.5  C 1408.5 811.82  1411.14 810.5  1414.5 810.5  Z " stroke-width="1" stroke="#ffffff" fill="none" />
  </g>
</svg>