<?xml version="1.0" encoding="utf-8"?>
<svg version="1.1" xmlns:xlink="http://www.w3.org/1999/xlink" width="13px" height="7px" xmlns="http://www.w3.org/2000/svg">
  <g transform="matrix(1 0 0 1 -1408 -878 )">
    <path d="M 1414.5 878  C 1418.14 878  1421 879.54  1421 881.5  C 1421 883.46  1418.14 885  1414.5 885  C 1410.86 885  1408 883.46  1408 881.5  C 1408 879.54  1410.86 878  1414.5 878  Z " fill-rule="nonzero" fill="#2fc25b" stroke="none" />
    <path d="M 1414.5 878.5  C 1417.86 878.5  1420.5 879.82  1420.5 881.5  C 1420.5 883.18  1417.86 884.5  1414.5 884.5  C 1411.14 884.5  1408.5 883.18  1408.5 881.5  C 1408.5 879.82  1411.14 878.5  1414.5 878.5  Z " stroke-width="1" stroke="#ffffff" fill="none" />
  </g>
</svg>