<?xml version="1.0" encoding="utf-8"?>
<svg version="1.1" xmlns:xlink="http://www.w3.org/1999/xlink" width="14px" height="14px" xmlns="http://www.w3.org/2000/svg">
  <g transform="matrix(1 0 0 1 -2567 -700 )">
    <path d="M 13.7517168141593 13.2361061946903  C 13.9514336283186 13.0591150442478  13.9623362831858 12.7603539823009  13.7755044247788 12.5701474926254  L 11.4121061946903 10.1616519174041  C 12.3700530973451 9.06289085545723  12.8968495575221 7.69321533923304  12.8968495575221 6.25132743362832  C 12.8968495575221 2.86867256637167  10.0066548672566 0.116106194690265  6.4538761061947 0.116106194690265  C 2.90208849557522 0.116106194690265  0.0118938053097253 2.86820058997051  0.0118938053097253 6.25132743362832  C 0.0118938053097253 9.63445427728614  2.90208849557522 12.3865486725664  6.45437168141593 12.3865486725664  C 7.38506194690267 12.3860766961652  8.28254867256636 12.2010619469027  9.12155752212389 11.8371681415929  C 9.37083185840707 11.7290855457227  9.48084955752212 11.449203539823  9.36736283185841 11.2122713864307  C 9.25387610619468 10.974395280236  8.95851327433627 10.8691445427729  8.71122123893806 10.9781710914454  C 8.00106194690264 11.2858997050147  7.24184070796461 11.4421238938053  6.4538761061947 11.4425958702065  C 3.44821238938052 11.4425958702065  1.00304424778761 9.11386430678467  1.00304424778761 6.25132743362832  C 1.00304424778761 3.38926253687314  3.44821238938052 1.06005899705015  6.4538761061947 1.06005899705015  C 9.46003539823008 1.06005899705015  11.9056991150442 3.38879056047199  11.9056991150442 6.25132743362832  C 11.9056991150442 7.59882005899703  11.366017699115 8.8755162241888  10.3867610619469 9.84637168141593  C 10.1969557522124 10.0342182890855  10.2033982300885 10.3329793510325  10.4001415929203 10.5137463126844  C 10.4150088495575 10.5274336283186  10.4343362831858 10.5326253687316  10.451185840708 10.5444247787611  C 10.4645663716814 10.5633038348082  10.4715044247788 10.5850147492625  10.4883539823009 10.602005899705  L 13.0514690265487 13.2139233038348  C 13.1486017699115 13.3135103244838  13.2809203539823 13.3635398230088  13.4132389380531 13.3635398230088  C 13.5346548672566 13.3635398230088  13.6560707964602 13.3215339233038  13.7517168141593 13.2361061946903  Z " fill-rule="nonzero" fill="#ffffff" stroke="none" transform="matrix(1 0 0 1 2567 700 )" />
  </g>
</svg>