<?xml version="1.0" encoding="utf-8"?>
<svg version="1.1" xmlns:xlink="http://www.w3.org/1999/xlink" width="27px" height="27px" xmlns="http://www.w3.org/2000/svg">
  <defs>
    <filter x="841px" y="484px" width="27px" height="27px" filterUnits="userSpaceOnUse" id="filter69">
      <feOffset dx="0" dy="1" in="SourceAlpha" result="shadowOffsetInner" />
      <feGaussianBlur stdDeviation="1" in="shadowOffsetInner" result="shadowGaussian" />
      <feComposite in2="shadowGaussian" operator="atop" in="SourceAlpha" result="shadowComposite" />
      <feColorMatrix type="matrix" values="0 0 0 0 0  0 0 0 0 0  0 0 0 0 0  0 0 0 0.349019607843137 0  " in="shadowComposite" />
    </filter>
    <g id="widget70">
      <path d="M 854.5 485  C 860.94 485  866 490.06  866 496.5  C 866 502.94  860.94 508  854.5 508  C 848.06 508  843 502.94  843 496.5  C 843 490.06  848.06 485  854.5 485  Z " fill-rule="nonzero" fill="#ffffff" stroke="none" />
      <path d="M 854.5 485.5  C 860.66 485.5  865.5 490.34  865.5 496.5  C 865.5 502.66  860.66 507.5  854.5 507.5  C 848.34 507.5  843.5 502.66  843.5 496.5  C 843.5 490.34  848.34 485.5  854.5 485.5  Z " stroke-width="1" stroke="#d9d9d9" fill="none" />
    </g>
  </defs>
  <g transform="matrix(1 0 0 1 -841 -484 )">
    <use xlink:href="#widget70" filter="url(#filter69)" />
    <use xlink:href="#widget70" />
  </g>
</svg>