<?xml version="1.0" encoding="utf-8"?>
<svg version="1.1" xmlns:xlink="http://www.w3.org/1999/xlink" width="120px" height="132px" xmlns="http://www.w3.org/2000/svg">
  <g transform="matrix(1 0 0 1 -561 -498 )">
    <path d="M 562 502  A 3 3 0 0 1 565 499 L 677 499  A 3 3 0 0 1 680 502 L 680 626  A 3 3 0 0 1 677 629 L 565 629  A 3 3 0 0 1 562 626 L 562 502  Z " fill-rule="nonzero" fill="#ff3399" stroke="none" fill-opacity="0.0980392156862745" />
    <path d="M 561.5 502  A 3.5 3.5 0 0 1 565 498.5 L 677 498.5  A 3.5 3.5 0 0 1 680.5 502 L 680.5 626  A 3.5 3.5 0 0 1 677 629.5 L 565 629.5  A 3.5 3.5 0 0 1 561.5 626 L 561.5 502  Z " stroke-width="1" stroke-dasharray="9,4" stroke="#ff3399" fill="none" stroke-dashoffset="0.5" />
  </g>
</svg>