<?xml version="1.0" encoding="utf-8"?>
<svg version="1.1" xmlns:xlink="http://www.w3.org/1999/xlink" width="27px" height="27px" xmlns="http://www.w3.org/2000/svg">
  <defs>
    <filter x="835px" y="464px" width="27px" height="27px" filterUnits="userSpaceOnUse" id="filter345">
      <feOffset dx="0" dy="1" in="SourceAlpha" result="shadowOffsetInner" />
      <feGaussianBlur stdDeviation="1" in="shadowOffsetInner" result="shadowGaussian" />
      <feComposite in2="shadowGaussian" operator="atop" in="SourceAlpha" result="shadowComposite" />
      <feColorMatrix type="matrix" values="0 0 0 0 0  0 0 0 0 0  0 0 0 0 0  0 0 0 0.349019607843137 0  " in="shadowComposite" />
    </filter>
    <g id="widget346">
      <path d="M 848.5 465  C 854.94 465  860 470.06  860 476.5  C 860 482.94  854.94 488  848.5 488  C 842.06 488  837 482.94  837 476.5  C 837 470.06  842.06 465  848.5 465  Z " fill-rule="nonzero" fill="#ffffff" stroke="none" />
      <path d="M 848.5 465.5  C 854.66 465.5  859.5 470.34  859.5 476.5  C 859.5 482.66  854.66 487.5  848.5 487.5  C 842.34 487.5  837.5 482.66  837.5 476.5  C 837.5 470.34  842.34 465.5  848.5 465.5  Z " stroke-width="1" stroke="#d9d9d9" fill="none" />
    </g>
  </defs>
  <g transform="matrix(1 0 0 1 -835 -464 )">
    <use xlink:href="#widget346" filter="url(#filter345)" />
    <use xlink:href="#widget346" />
  </g>
</svg>