<?xml version="1.0" encoding="utf-8"?>
<svg version="1.1" xmlns:xlink="http://www.w3.org/1999/xlink" width="951px" height="152px" xmlns="http://www.w3.org/2000/svg">
  <g transform="matrix(1 0 0 1 -566 -260 )">
    <path d="M 947.999999999996 54.9175862964748  L 0 92.8606459194938  C 0 92.8606459194938  54.2334096109839 109.835172592949  139.490185421245 111.458413394567  C 224.746961231506 113.081654196185  236.044735498247 152.639279197628  278.442913934769 148.728145663669  C 320.841092371291 144.81701212971  338.416475972542 66.8996051247962  401.327231121282 66.8996051247963  C 464.237986270022 66.8996051247965  464.237986270024 88.8666396433863  544.5488372093 89.1694214465821  C 624.859688148577 89.4722032497779  564.839376653387 92.475164134673  677.238910294655 88.6738987509759  C 789.638443935921 84.872633367279  746.251716247136 0  809.162471395875 0  C 872.073226544615 0  850.379862700226 54.9175862964748  947.999999999996 54.9175862964748  Z " fill-rule="nonzero" fill="#27364e" stroke="none" transform="matrix(1 0 0 1 567 261 )" />
    <path d="M 0 92.8606459194938  C 0 92.8606459194938  54.2334096109839 109.835172592949  139.490185421245 111.458413394567  C 224.746961231506 113.081654196185  236.044735498247 152.639279197628  278.442913934769 148.728145663669  C 320.841092371291 144.81701212971  338.416475972542 66.8996051247962  401.327231121282 66.8996051247963  C 464.237986270022 66.8996051247965  464.237986270024 88.8666396433863  544.5488372093 89.1694214465821  C 624.859688148577 89.4722032497779  564.839376653387 92.475164134673  677.238910294655 88.6738987509759  C 789.638443935921 84.872633367279  746.251716247136 0  809.162471395875 0  C 872.073226544615 0  850.379862700226 54.9175862964748  947.999999999996 54.9175862964748  " stroke-width="2" stroke="#5b8ff9" fill="none" transform="matrix(1 0 0 1 567 261 )" />
  </g>
</svg>