<?xml version="1.0" encoding="utf-8"?>
<svg version="1.1" xmlns:xlink="http://www.w3.org/1999/xlink" width="20px" height="20px" xmlns="http://www.w3.org/2000/svg">
  <g transform="matrix(1 0 0 1 -1800 -18 )">
    <path d="M 1810 18  C 1815.6 18  1820 22.4  1820 28  C 1820 33.6  1815.6 38  1810 38  C 1804.4 38  1800 33.6  1800 28  C 1800 22.4  1804.4 18  1810 18  Z " fill-rule="nonzero" fill="#ffffff" stroke="none" />
    <path d="M 1810 18.5  C 1815.32 18.5  1819.5 22.68  1819.5 28  C 1819.5 33.32  1815.32 37.5  1810 37.5  C 1804.68 37.5  1800.5 33.32  1800.5 28  C 1800.5 22.68  1804.68 18.5  1810 18.5  Z " stroke-width="1" stroke="#797979" fill="none" />
  </g>
</svg>