<?xml version="1.0" encoding="utf-8"?>
<svg version="1.1" xmlns:xlink="http://www.w3.org/1999/xlink" width="28px" height="17px" xmlns="http://www.w3.org/2000/svg">
  <g transform="matrix(1 0 0 1 -806 -229 )">
    <path d="M 23.9166666666667 5.85582386363636  L 27.8055555555556 8.17400568181818  C 27.9351851851852 8.23839962121212  28 8.34706439393939  28 8.5  C 28 8.65293560606061  27.9351851851852 8.76160037878788  27.8055555555556 8.82599431818182  L 23.9166666666667 11.1441761363636  C 23.8518518518519 11.1844223484848  23.787037037037 11.2045454545455  23.7222222222222 11.2045454545455  C 23.6493055555556 11.2045454545455  23.5844907407407 11.188446969697  23.5277777777778 11.15625  C 23.3981481481482 11.0757575757576  23.3333333333333 10.9630681818182  23.3333333333333 10.8181818181818  L 23.3333333333333 9  L 12.90625 9  C 13.2060185185185 9.73958333333333  13.5422453703704 10.4036458333333  13.9149305555556 11.2649147727273  C 14.0445601851852 11.5627367424242  14.1438078703704 11.7840909090909  14.2126736111111 11.9289772727273  C 14.2815393518519 12.0738636363636  14.3787615740741 12.2710700757576  14.5043402777778 12.5205965909091  C 14.6299189814815 12.7701231060606  14.7392939814815 12.9592803030303  14.8324652777778 13.0880681818182  C 14.9256365740741 13.2168560606061  15.0350115740741 13.3536931818182  15.1605902777778 13.4985795454545  C 15.2861689814815 13.6434659090909  15.4137731481482 13.7481060606061  15.5434027777778 13.8125  C 15.6730324074074 13.8768939393939  15.806712962963 13.9090909090909  15.9444444444444 13.9090909090909  L 17.1111111111111 13.9090909090909  L 17.1111111111111 12.75  C 17.1111111111111 12.6373106060606  17.1475694444444 12.5447443181818  17.2204861111111 12.4723011363636  C 17.2934027777778 12.3998579545455  17.3865740740741 12.3636363636364  17.5 12.3636363636364  L 21.3888888888889 12.3636363636364  C 21.5023148148148 12.3636363636364  21.5954861111111 12.3998579545455  21.6684027777778 12.4723011363636  C 21.7413194444444 12.5447443181818  21.7777777777778 12.6373106060606  21.7777777777778 12.75  L 21.7777777777778 16.6136363636364  C 21.7777777777778 16.7263257575758  21.7413194444444 16.8188920454545  21.6684027777778 16.8913352272727  C 21.5954861111111 16.9637784090909  21.5023148148148 17  21.3888888888889 17  L 17.5 17  C 17.3865740740741 17  17.2934027777778 16.9637784090909  17.2204861111111 16.8913352272727  C 17.1475694444444 16.8188920454545  17.1111111111111 16.7263257575758  17.1111111111111 16.6136363636364  L 17.1111111111111 15.4545454545455  L 15.9444444444444 15.4545454545455  C 15.6851851851852 15.4545454545455  15.4380787037037 15.4142992424242  15.203125 15.3338068181818  C 14.9681712962963 15.2533143939394  14.7615740740741 15.1587357954545  14.5833333333333 15.0500710227273  C 14.4050925925926 14.94140625  14.2228009259259 14.7784090909091  14.0364583333333 14.5610795454545  C 13.8501157407407 14.34375  13.7002314814815 14.1586174242424  13.5868055555556 14.0056818181818  C 13.4733796296296 13.8527462121212  13.3376736111111 13.6233428030303  13.1796875 13.3174715909091  C 13.0217013888889 13.0116003787879  12.90625 12.7801846590909  12.8333333333333 12.6232244318182  C 12.7604166666667 12.4662642045455  12.6469907407407 12.2227746212121  12.4930555555556 11.8927556818182  C 12.306712962963 11.4661458333333  12.1568287037037 11.1381392045455  12.0434027777778 10.9087357954545  C 11.9299768518519 10.6793323863636  11.7841435185185 10.4177320075758  11.6059027777778 10.1239346590909  C 11.427662037037 9.83013731060606  11.2473958333333 9.61482007575757  11.0651041666667 9.47798295454546  C 10.8828125 9.34114583333333  10.6944444444444 9.27272727272727  10.5 9.27272727272727  L 6.125 9.27272727272727  C 5.94675925925926 9.94886363636364  5.578125 10.5042613636364  5.01909722222222 10.9389204545455  C 4.46006944444444 11.3735795454545  3.82407407407407 11.5909090909091  3.11111111111111 11.5909090909091  C 2.25231481481481 11.5909090909091  1.51909722222222 11.2890625  0.911458333333333 10.6853693181818  C 0.303819444444444 10.0816761363636  0 9.3532196969697  0 8.5  C 0 7.6467803030303  0.303819444444444 6.91832386363636  0.911458333333333 6.31463068181818  C 1.51909722222222 5.7109375  2.25231481481481 5.40909090909091  3.11111111111111 5.40909090909091  C 3.82407407407407 5.40909090909091  4.46006944444444 5.62642045454545  5.01909722222222 6.06107954545455  C 5.578125 6.49573863636363  5.94675925925926 7.05113636363636  6.125 7.72727272727273  L 7.38888888888889 7.72727272727273  C 7.58333333333333 7.72727272727273  7.77170138888889 7.65885416666667  7.95399305555556 7.52201704545455  C 8.13628472222222 7.38517992424242  8.31655092592593 7.16986268939394  8.49479166666667 6.87606534090909  C 8.67303240740741 6.58226799242424  8.81886574074074 6.32066761363636  8.93229166666667 6.09126420454545  C 9.04571759259259 5.86186079545455  9.19560185185185 5.53385416666667  9.38194444444444 5.10724431818182  C 9.53587962962963 4.77722537878788  9.64930555555556 4.53373579545455  9.72222222222222 4.37677556818182  C 9.79513888888889 4.21981534090909  9.91059027777778 3.98839962121212  10.0685763888889 3.68252840909091  C 10.2265625 3.37665719696969  10.3622685185185 3.14725378787879  10.4756944444444 2.99431818181818  C 10.5891203703704 2.84138257575758  10.7390046296296 2.65625  10.9253472222222 2.43892045454545  C 11.1116898148148 2.22159090909091  11.2939814814815 2.05859375  11.4722222222222 1.94992897727273  C 11.650462962963 1.84126420454545  11.8570601851852 1.7466856060606  12.0920138888889 1.66619318181818  C 12.3269675925926 1.58570075757576  12.5740740740741 1.54545454545455  12.8333333333333 1.54545454545455  L 14.1336805555556 1.54545454545455  C 14.3038194444444 1.08664772727273  14.5873842592593 0.714370265151513  14.984375 0.42862215909091  C 15.3813657407407 0.142874053030301  15.8310185185185 0  16.3333333333333 0  C 16.9814814814815 0  17.5324074074074 0.225378787878787  17.9861111111111 0.676136363636364  C 18.4398148148148 1.12689393939394  18.6666666666667 1.67424242424242  18.6666666666667 2.31818181818182  C 18.6666666666667 2.96212121212121  18.4398148148148 3.50946969696969  17.9861111111111 3.96022727272727  C 17.5324074074074 4.41098484848485  16.9814814814815 4.63636363636364  16.3333333333333 4.63636363636364  C 15.8310185185185 4.63636363636364  15.3813657407407 4.49348958333333  14.984375 4.20774147727273  C 14.5873842592593 3.92199337121212  14.3038194444444 3.54971590909091  14.1336805555556 3.09090909090909  L 12.8333333333333 3.09090909090909  C 12.6956018518519 3.09090909090909  12.5619212962963 3.12310606060606  12.4322916666667 3.1875  C 12.302662037037 3.25189393939394  12.1750578703704 3.35653409090909  12.0494791666667 3.50142045454545  C 11.923900462963 3.64630681818182  11.814525462963 3.78314393939394  11.7213541666667 3.91193181818182  C 11.6281828703704 4.04071969696969  11.5188078703704 4.22987689393939  11.3932291666667 4.47940340909091  C 11.267650462963 4.72892992424242  11.1704282407407 4.92613636363636  11.1015625 5.07102272727273  C 11.0326967592593 5.21590909090909  10.9334490740741 5.43726325757576  10.8038194444444 5.73508522727273  C 10.4311342592593 6.59635416666667  10.0949074074074 7.26041666666667  9.79513888888889 8  L 23.3333333333333 8  L 23.3333333333333 6.18181818181818  C 23.3333333333333 6.03693181818182  23.3981481481482 5.92424242424242  23.5277777777778 5.84375  C 23.6574074074074 5.76325757575758  23.787037037037 5.7672821969697  23.9166666666667 5.85582386363636  Z " fill-rule="nonzero" fill="#e3ab00" stroke="none" transform="matrix(1 0 0 1 806 229 )" />
  </g>
</svg>