<?xml version="1.0" encoding="utf-8"?>
<svg version="1.1" xmlns:xlink="http://www.w3.org/1999/xlink" width="1175px" height="74px" xmlns="http://www.w3.org/2000/svg">
  <g transform="matrix(1 0 0 1 -31 -144 )">
    <path d="M 32 149  A 4 4 0 0 1 36 145 L 1201 145  A 4 4 0 0 1 1205 149 L 1205 213  A 4 4 0 0 1 1201 217 L 36 217  A 4 4 0 0 1 32 213 L 32 149  Z " fill-rule="nonzero" fill="#1e2634" stroke="none" />
    <path d="M 31.5 149  A 4.5 4.5 0 0 1 36 144.5 L 1201 144.5  A 4.5 4.5 0 0 1 1205.5 149 L 1205.5 213  A 4.5 4.5 0 0 1 1201 217.5 L 36 217.5  A 4.5 4.5 0 0 1 31.5 213 L 31.5 149  Z " stroke-width="1" stroke="#c2c6d2" fill="none" stroke-opacity="0.376470588235294" />
  </g>
</svg>