<?xml version="1.0" encoding="utf-8"?>
<svg version="1.1" xmlns:xlink="http://www.w3.org/1999/xlink" width="13px" height="9px" xmlns="http://www.w3.org/2000/svg">
  <g transform="matrix(1 0 0 1 -646 -802 )">
    <path d="M 652.5 802  C 656.14 802  659 803.98  659 806.5  C 659 809.02  656.14 811  652.5 811  C 648.86 811  646 809.02  646 806.5  C 646 803.98  648.86 802  652.5 802  Z " fill-rule="nonzero" fill="#2fc25b" stroke="none" />
    <path d="M 652.5 802.5  C 655.86 802.5  658.5 804.26  658.5 806.5  C 658.5 808.74  655.86 810.5  652.5 810.5  C 649.14 810.5  646.5 808.74  646.5 806.5  C 646.5 804.26  649.14 802.5  652.5 802.5  Z " stroke-width="1" stroke="#ffffff" fill="none" />
  </g>
</svg>