<?xml version="1.0" encoding="utf-8"?>
<svg version="1.1" xmlns:xlink="http://www.w3.org/1999/xlink" width="13px" height="11px" xmlns="http://www.w3.org/2000/svg">
  <g transform="matrix(1 0 0 1 -934 -578 )">
    <path d="M 940.5 578  C 944.14 578  947 580.42  947 583.5  C 947 586.58  944.14 589  940.5 589  C 936.86 589  934 586.58  934 583.5  C 934 580.42  936.86 578  940.5 578  Z " fill-rule="nonzero" fill="#d0b253" stroke="none" />
    <path d="M 940.5 578.5  C 943.86 578.5  946.5 580.7  946.5 583.5  C 946.5 586.3  943.86 588.5  940.5 588.5  C 937.14 588.5  934.5 586.3  934.5 583.5  C 934.5 580.7  937.14 578.5  940.5 578.5  Z " stroke-width="1" stroke="#bf9904" fill="none" />
  </g>
</svg>