<?xml version="1.0" encoding="utf-8"?>
<svg version="1.1" xmlns:xlink="http://www.w3.org/1999/xlink" width="7px" height="7px" xmlns="http://www.w3.org/2000/svg">
  <g transform="matrix(1 0 0 1 -1808 -569 )">
    <path d="M 6.96088888888889 3.42933333333333  C 6.96088888888889 3.54866666666667  6.86422222222222 3.64555555555556  6.74466666666667 3.64555555555556  L 3.79044444444445 3.64555555555556  L 3.79044444444445 6.744  C 3.79044444444445 6.86333333333334  3.69377777777778 6.96022222222222  3.57422222222222 6.96022222222222  C 3.45466666666667 6.96022222222222  3.358 6.86333333333334  3.358 6.744  L 3.358 3.64555555555556  L 0.259555555555561 3.64555555555556  C 0.140222222222215 3.64555555555556  0.0433333333333344 3.54866666666667  0.0433333333333344 3.42933333333333  C 0.0433333333333344 3.31  0.139999999999997 3.21311111111111  0.259555555555561 3.21311111111111  L 3.358 3.21311111111111  L 3.358 0.258888888888887  C 3.358 0.139555555555555  3.45466666666667 0.0426666666666655  3.57422222222222 0.0426666666666655  C 3.69377777777778 0.0426666666666655  3.79044444444445 0.139555555555555  3.79044444444445 0.258888888888887  L 3.79044444444445 3.21311111111111  L 6.74466666666667 3.21311111111111  C 6.864 3.21311111111111  6.96088888888889 3.31  6.96088888888889 3.42933333333333  Z " fill-rule="nonzero" fill="#ffffff" stroke="none" transform="matrix(1 0 0 1 1808 569 )" />
  </g>
</svg>