<?xml version="1.0" encoding="utf-8"?>
<svg version="1.1" xmlns:xlink="http://www.w3.org/1999/xlink" width="14px" height="13px" xmlns="http://www.w3.org/2000/svg">
  <g transform="matrix(1 0 0 1 -1884 -567 )">
    <path d="M 4.7976063829787 6.50526849037488  L 6.88271276595745 9.07332826747719  C 6.94228723404256 9.14758105369806  7.05771276595744 9.14758105369806  7.11728723404255 9.07332826747719  L 9.20239361702126 6.50707953394121  C 9.27872340425533 6.41290526849038  9.20984042553191 6.27345491388044  9.08510638297871 6.27345491388044  L 7.70558510638299 6.27345491388044  L 7.70558510638299 0.144883485309024  C 7.70558510638299 0.0651975683890696  7.63856382978723 0  7.55664893617022 0  L 6.43962765957448 0  C 6.35771276595746 0  6.2906914893617 0.0651975683890696  6.2906914893617 0.144883485309024  L 6.2906914893617 6.27164387031407  L 4.91489361702129 6.27164387031407  C 4.79015957446809 6.27164387031407  4.72127659574467 6.411094224924  4.7976063829787 6.50526849037488  Z M 13.9627659574468 8.58434650455926  C 13.9627659574468 8.5046605876393  13.8957446808511 8.43946301925023  13.8138297872341 8.43946301925023  L 12.6968085106383 8.43946301925023  C 12.6148936170213 8.43946301925023  12.5478723404255 8.5046605876393  12.5478723404255 8.58434650455926  L 12.5478723404255 11.3733535967578  L 1.45212765957445 11.3733535967578  L 1.45212765957445 8.58434650455926  C 1.45212765957445 8.5046605876393  1.38510638297873 8.43946301925023  1.30319148936172 8.43946301925023  L 0.186170212765975 8.43946301925023  C 0.104255319148923 8.43946301925023  0.0372340425532023 8.5046605876393  0.0372340425532023 8.58434650455926  L 0.0372340425532023 12.1702127659574  C 0.0372340425532023 12.4907674772036  0.303457446808522 12.7497467071935  0.632978723404258 12.7497467071935  L 13.3670212765957 12.7497467071935  C 13.6965425531915 12.7497467071935  13.9627659574468 12.4907674772036  13.9627659574468 12.1702127659574  L 13.9627659574468 8.58434650455926  Z " fill-rule="nonzero" fill="#ffffff" stroke="none" transform="matrix(1 0 0 1 1884 567 )" />
  </g>
</svg>