<?xml version="1.0" encoding="utf-8"?>
<svg version="1.1" xmlns:xlink="http://www.w3.org/1999/xlink" width="14px" height="14px" xmlns="http://www.w3.org/2000/svg">
  <g transform="matrix(1 0 0 1 -1859 -566 )">
    <path d="M 10.5 5.47297297297297  L 14 5.47297297297297  L 14 2.06756756756757  L 12.8585 3.17821621621622  C 11.5639535098127 1.2698530723407  9.37107137431738 0.121447335387631  7.021 0.121135135135134  C 3.155 0.121135135135134  0.0204999999999953 3.17043243243243  0.0204999999999953 6.93243243243243  C 0.0204999999999953 10.6944324324324  3.155 13.7437297297297  7.021 13.7437297297297  C 9.87092795382134 13.744282210866  12.4367660358044 12.0639220592984  13.509 9.49475675675676  C 13.5381253385512 9.42499402611187  13.553100918979 9.35040678213029  13.553100918979 9.27510810810811  C 13.553100918979 8.95277333702519  13.2845385147241 8.69146937612851  12.95325 8.69146937612851  C 12.7091359065209 8.69146937612851  12.489370754648 8.83540520328718  12.3975 9.05545945945946  C 11.5086464017798 11.1841911421764  9.38252612962565 12.5764421211487  7.021 12.5761621621622  C 3.8175 12.5761621621622  1.2205 10.0493513513514  1.2205 6.93243243243243  C 1.2205 3.81551351351351  3.8175 1.2887027027027  7.021 1.2887027027027  C 9.0905 1.2887027027027  10.9575 2.35410810810811  11.99 4.02275675675676  L 10.5 5.47297297297297  Z " fill-rule="nonzero" fill="#ffffff" stroke="none" transform="matrix(1 0 0 1 1859 566 )" />
  </g>
</svg>