<?xml version="1.0" encoding="utf-8"?>
<svg version="1.1" xmlns:xlink="http://www.w3.org/1999/xlink" width="11px" height="11px" xmlns="http://www.w3.org/2000/svg">
  <g transform="matrix(1 0 0 1 -609 -578 )">
    <path d="M 614.5 578  C 617.58 578  620 580.42  620 583.5  C 620 586.58  617.58 589  614.5 589  C 611.42 589  609 586.58  609 583.5  C 609 580.42  611.42 578  614.5 578  Z " fill-rule="nonzero" fill="#108de9" stroke="none" />
    <path d="M 614.5 578.5  C 617.3 578.5  619.5 580.7  619.5 583.5  C 619.5 586.3  617.3 588.5  614.5 588.5  C 611.7 588.5  609.5 586.3  609.5 583.5  C 609.5 580.7  611.7 578.5  614.5 578.5  Z " stroke-width="1" stroke="#108de9" fill="none" />
  </g>
</svg>