<?xml version="1.0" encoding="utf-8"?>
<svg version="1.1" xmlns:xlink="http://www.w3.org/1999/xlink" width="11px" height="11px" xmlns="http://www.w3.org/2000/svg">
  <g transform="matrix(1 0 0 1 -1452 -577 )">
    <path d="M 1457.5 577  C 1460.58 577  1463 579.42  1463 582.5  C 1463 585.58  1460.58 588  1457.5 588  C 1454.42 588  1452 585.58  1452 582.5  C 1452 579.42  1454.42 577  1457.5 577  Z " fill-rule="nonzero" fill="#006633" stroke="none" />
    <path d="M 1457.5 577.5  C 1460.3 577.5  1462.5 579.7  1462.5 582.5  C 1462.5 585.3  1460.3 587.5  1457.5 587.5  C 1454.7 587.5  1452.5 585.3  1452.5 582.5  C 1452.5 579.7  1454.7 577.5  1457.5 577.5  Z " stroke-width="1" stroke="#6eb547" fill="none" />
  </g>
</svg>