<?xml version="1.0" encoding="utf-8"?>
<svg version="1.1" xmlns:xlink="http://www.w3.org/1999/xlink" width="11px" height="11px" xmlns="http://www.w3.org/2000/svg">
  <g transform="matrix(1 0 0 1 -1096 -579 )">
    <path d="M 1101.5 579  C 1104.58 579  1107 581.42  1107 584.5  C 1107 587.58  1104.58 590  1101.5 590  C 1098.42 590  1096 587.58  1096 584.5  C 1096 581.42  1098.42 579  1101.5 579  Z " fill-rule="nonzero" fill="#e3935d" stroke="none" />
    <path d="M 1101.5 579.5  C 1104.3 579.5  1106.5 581.7  1106.5 584.5  C 1106.5 587.3  1104.3 589.5  1101.5 589.5  C 1098.7 589.5  1096.5 587.3  1096.5 584.5  C 1096.5 581.7  1098.7 579.5  1101.5 579.5  Z " stroke-width="1" stroke="#e3935d" fill="none" />
  </g>
</svg>