<?xml version="1.0" encoding="utf-8"?>
<svg version="1.1" xmlns:xlink="http://www.w3.org/1999/xlink" width="103px" height="27px" xmlns="http://www.w3.org/2000/svg">
  <g transform="matrix(1 0 0 1 -501 -516 )">
    <path d="M 501.5 521  A 4.5 4.5 0 0 1 506 516.5 L 599 516.5  A 4.5 4.5 0 0 1 603.5 521 L 603.5 538  A 4.5 4.5 0 0 1 599 542.5 L 506 542.5  A 4.5 4.5 0 0 1 501.5 538 L 501.5 521  Z " fill-rule="nonzero" fill="#111821" stroke="none" />
    <path d="M 501.5 521  A 4.5 4.5 0 0 1 506 516.5 L 599 516.5  A 4.5 4.5 0 0 1 603.5 521 L 603.5 538  A 4.5 4.5 0 0 1 599 542.5 L 506 542.5  A 4.5 4.5 0 0 1 501.5 538 L 501.5 521  Z " stroke-width="1" stroke="#cccccc" fill="none" />
  </g>
</svg>