<?xml version="1.0" encoding="utf-8"?>
<svg version="1.1" xmlns:xlink="http://www.w3.org/1999/xlink" width="381px" height="245px" xmlns="http://www.w3.org/2000/svg">
  <g transform="matrix(1 0 0 1 -680 -632 )">
    <path d="M 681 636  A 3 3 0 0 1 684 633 L 1057 633  A 3 3 0 0 1 1060 636 L 1060 873  A 3 3 0 0 1 1057 876 L 684 876  A 3 3 0 0 1 681 873 L 681 636  Z " fill-rule="nonzero" fill="#ff3399" stroke="none" fill-opacity="0.0980392156862745" />
    <path d="M 680.5 636  A 3.5 3.5 0 0 1 684 632.5 L 1057 632.5  A 3.5 3.5 0 0 1 1060.5 636 L 1060.5 873  A 3.5 3.5 0 0 1 1057 876.5 L 684 876.5  A 3.5 3.5 0 0 1 680.5 873 L 680.5 636  Z " stroke-width="1" stroke-dasharray="9,4" stroke="#ff3399" fill="none" stroke-dashoffset="0.5" />
  </g>
</svg>