<?xml version="1.0" encoding="utf-8"?>
<svg version="1.1" xmlns:xlink="http://www.w3.org/1999/xlink" width="120px" height="49px" xmlns="http://www.w3.org/2000/svg">
  <g transform="matrix(1 0 0 1 -639 -125 )">
    <path d="M 640 129  A 3 3 0 0 1 643 126 L 755 126  A 3 3 0 0 1 758 129 L 758 170  A 3 3 0 0 1 755 173 L 643 173  A 3 3 0 0 1 640 170 L 640 129  Z " fill-rule="nonzero" fill="#ff3399" stroke="none" fill-opacity="0.0980392156862745" />
    <path d="M 639.5 129  A 3.5 3.5 0 0 1 643 125.5 L 755 125.5  A 3.5 3.5 0 0 1 758.5 129 L 758.5 170  A 3.5 3.5 0 0 1 755 173.5 L 643 173.5  A 3.5 3.5 0 0 1 639.5 170 L 639.5 129  Z " stroke-width="1" stroke-dasharray="9,4" stroke="#ff3399" fill="none" stroke-dashoffset="0.5" />
  </g>
</svg>