<?xml version="1.0" encoding="utf-8"?>
<svg version="1.1" xmlns:xlink="http://www.w3.org/1999/xlink" width="134px" height="134px" xmlns="http://www.w3.org/2000/svg">
  <g transform="matrix(1 0 0 1 -1696 -789 )">
    <path d="M 1756.81734850492 789.788031138227  C 1758.87255491193 789.596122856782  1760.93567242022 789.5  1763 789.5  C 1799.72693586375 789.5  1829.5 819.273064136252  1829.5 856  C 1829.5 892.726935863748  1799.72693586375 922.5  1763 922.5  C 1728.72415363369 922.5  1700.09315273761 896.455525979103  1696.80790185203 862.392208023751  L 1763.04431834382 856.498032011422  A 0.5 0.5 0 0 0 1763.49747076072 855.949772097104 L 1756.81734850492 789.788031138227  Z " fill-rule="nonzero" fill="#0096fa" stroke="none" />
    <path d="M 1756.81734850492 789.788031138227  C 1758.87255491193 789.596122856782  1760.93567242022 789.5  1763 789.5  C 1799.72693586375 789.5  1829.5 819.273064136252  1829.5 856  C 1829.5 892.726935863748  1799.72693586375 922.5  1763 922.5  C 1728.72415363369 922.5  1700.09315273761 896.455525979103  1696.80790185203 862.392208023751  L 1763.04431834382 856.498032011422  A 0.5 0.5 0 0 0 1763.49747076072 855.949772097104 L 1756.81734850492 789.788031138227  Z " stroke-width="1" stroke="#ffffff" fill="none" />
  </g>
</svg>