<?xml version="1.0" encoding="utf-8"?>
<svg version="1.1" xmlns:xlink="http://www.w3.org/1999/xlink" width="5px" height="2px" xmlns="http://www.w3.org/2000/svg">
  <defs>
    <mask fill="white" id="clip413">
      <path d="M 0 1  C 0 1.55228474979998  1.11928812550013 2  2.5 2  C 3.88071187449987 2  5 1.55228474979998  5 1  C 5 0.447715250200019  3.88071187449987 0  2.5 0  C 1.11928812550013 0  0 0.447715250200019  0 1  Z " fill-rule="evenodd" />
    </mask>
  </defs>
  <g transform="matrix(1 0 0 1 -1177 -145 )">
    <path d="M 0 1  C 0 1.55228474979998  1.11928812550013 2  2.5 2  C 3.88071187449987 2  5 1.55228474979998  5 1  C 5 0.447715250200019  3.88071187449987 0  2.5 0  C 1.11928812550013 0  0 0.447715250200019  0 1  Z " fill-rule="nonzero" fill="#5b8ff9" stroke="none" transform="matrix(1 0 0 1 1177 145 )" />
    <path d="M 0 1  C 0 1.55228474979998  1.11928812550013 2  2.5 2  C 3.88071187449987 2  5 1.55228474979998  5 1  C 5 0.447715250200019  3.88071187449987 0  2.5 0  C 1.11928812550013 0  0 0.447715250200019  0 1  Z " stroke-width="2" stroke="#ffffff" fill="none" stroke-opacity="0.949019607843137" transform="matrix(1 0 0 1 1177 145 )" mask="url(#clip413)" />
  </g>
</svg>