<?xml version="1.0" encoding="utf-8"?>
<svg version="1.1" xmlns:xlink="http://www.w3.org/1999/xlink" width="10px" height="10px" xmlns="http://www.w3.org/2000/svg">
  <g transform="matrix(1 0 0 1 -900 -134 )">
    <path d="M 905 134  C 907.8 134  910 136.2  910 139  C 910 141.8  907.8 144  905 144  C 902.2 144  900 141.8  900 139  C 900 136.2  902.2 134  905 134  Z " fill-rule="nonzero" fill="#4d5c79" stroke="none" />
    <path d="M 905 134.5  C 907.52 134.5  909.5 136.48  909.5 139  C 909.5 141.52  907.52 143.5  905 143.5  C 902.48 143.5  900.5 141.52  900.5 139  C 900.5 136.48  902.48 134.5  905 134.5  Z " stroke-width="1" stroke="#797979" fill="none" />
  </g>
</svg>