<?xml version="1.0" encoding="utf-8"?>
<svg version="1.1" xmlns:xlink="http://www.w3.org/1999/xlink" width="10px" height="10px" xmlns="http://www.w3.org/2000/svg">
  <g transform="matrix(1 0 0 1 -900 -86 )">
    <path d="M 905 86  C 907.8 86  910 88.2  910 91  C 910 93.8  907.8 96  905 96  C 902.2 96  900 93.8  900 91  C 900 88.2  902.2 86  905 86  Z " fill-rule="nonzero" fill="#48ab17" stroke="none" />
    <path d="M 905 86.5  C 907.52 86.5  909.5 88.48  909.5 91  C 909.5 93.52  907.52 95.5  905 95.5  C 902.48 95.5  900.5 93.52  900.5 91  C 900.5 88.48  902.48 86.5  905 86.5  Z " stroke-width="1" stroke="#797979" fill="none" />
  </g>
</svg>