<?xml version="1.0" encoding="utf-8"?>
<svg version="1.1" xmlns:xlink="http://www.w3.org/1999/xlink" width="30px" height="30px" xmlns="http://www.w3.org/2000/svg">
  <g transform="matrix(1 0 0 1 -6 -26 )">
    <path d="M 23.2421875 12.5  C 23.2421875 12.8385416666667  23.1184895833333 13.1315104166667  22.87109375 13.37890625  L 14.62890625 21.62109375  C 14.3815104166667 21.8684895833333  14.0885416666667 21.9921875  13.75 21.9921875  C 13.4114583333333 21.9921875  13.1184895833333 21.8684895833333  12.87109375 21.62109375  L 7.12890625 15.87890625  C 6.88151041666667 15.6315104166667  6.7578125 15.3385416666667  6.7578125 15  C 6.7578125 14.6614583333333  6.88151041666667 14.3684895833333  7.12890625 14.12109375  L 9.12109375 12.12890625  C 9.36848958333334 11.8815104166667  9.66145833333334 11.7578125  10 11.7578125  C 10.3385416666667 11.7578125  10.6315104166667 11.8815104166667  10.87890625 12.12890625  L 13.75 15  L 19.12109375 9.62890625  C 19.3684895833333 9.38151041666666  19.6614583333333 9.2578125  20 9.2578125  C 20.3385416666667 9.2578125  20.6315104166667 9.38151041666666  20.87890625 9.62890625  L 22.87109375 11.62109375  C 23.1184895833333 11.8684895833333  23.2421875 12.1614583333333  23.2421875 12.5  Z M 24.19921875 20.33203125  C 25.1497395833333 18.7044270833333  25.625 16.9270833333333  25.625 15  C 25.625 13.0729166666667  25.1497395833333 11.2955729166667  24.19921875 9.66796875  C 23.2486979166667 8.04036458333333  21.9596354166667 6.75130208333333  20.33203125 5.80078125  C 18.7044270833333 4.85026041666667  16.9270833333333 4.375  15 4.375  C 13.0729166666667 4.375  11.2955729166667 4.85026041666667  9.66796875 5.80078125  C 8.04036458333333 6.75130208333333  6.75130208333333 8.04036458333333  5.80078125 9.66796875  C 4.85026041666667 11.2955729166667  4.375 13.0729166666667  4.375 15  C 4.375 16.9270833333333  4.85026041666667 18.7044270833333  5.80078125 20.33203125  C 6.75130208333333 21.9596354166667  8.04036458333333 23.2486979166667  9.66796875 24.19921875  C 11.2955729166667 25.1497395833333  13.0729166666667 25.625  15 25.625  C 16.9270833333333 25.625  18.7044270833333 25.1497395833333  20.33203125 24.19921875  C 21.9596354166667 23.2486979166667  23.2486979166667 21.9596354166667  24.19921875 20.33203125  Z M 27.98828125 7.470703125  C 29.3294270833333 9.76888020833333  30 12.2786458333333  30 15  C 30 17.7213541666667  29.3294270833333 20.2311197916667  27.98828125 22.529296875  C 26.6471354166667 24.8274739583333  24.8274739583333 26.6471354166667  22.529296875 27.98828125  C 20.2311197916667 29.3294270833333  17.7213541666667 30  15 30  C 12.2786458333333 30  9.76888020833333 29.3294270833333  7.470703125 27.98828125  C 5.17252604166667 26.6471354166667  3.35286458333333 24.8274739583333  2.01171875 22.529296875  C 0.670572916666671 20.2311197916667  0 17.7213541666667  0 15  C 0 12.2786458333333  0.670572916666671 9.76888020833333  2.01171875 7.470703125  C 3.35286458333333 5.17252604166667  5.17252604166667 3.35286458333333  7.470703125 2.01171875  C 9.76888020833333 0.670572916666657  12.2786458333333 0  15 0  C 17.7213541666667 0  20.2311197916667 0.670572916666657  22.529296875 2.01171875  C 24.8274739583333 3.35286458333333  26.6471354166667 5.17252604166667  27.98828125 7.470703125  Z " fill-rule="nonzero" fill="#2ddf2d" stroke="none" transform="matrix(1 0 0 1 6 26 )" />
  </g>
</svg>