<?xml version="1.0" encoding="utf-8"?>
<svg version="1.1" xmlns:xlink="http://www.w3.org/1999/xlink" width="12px" height="12px" viewBox="187 12  12 12" xmlns="http://www.w3.org/2000/svg">
  <path d="M 193 12  C 196.36 12  199 14.64  199 18  C 199 21.36  196.36 24  193 24  C 189.64 24  187 21.36  187 18  C 187 14.64  189.64 12  193 12  Z " fill-rule="nonzero" fill="#f0f0f0" stroke="none" />
  <path d="M 193 12.5  C 196.08 12.5  198.5 14.92  198.5 18  C 198.5 21.08  196.08 23.5  193 23.5  C 189.92 23.5  187.5 21.08  187.5 18  C 187.5 14.92  189.92 12.5  193 12.5  Z " stroke-width="1" stroke="#797979" fill="none" />
  <path d="M 193 21  C 191.32 21  190 19.68  190 18  C 190 16.32  191.32 15  193 15  C 194.68 15  196 16.32  196 18  C 196 19.68  194.68 21  193 21  " fill-rule="nonzero" fill="#797979" stroke="none" />
</svg>