<?xml version="1.0" encoding="utf-8"?>
<svg version="1.1" xmlns:xlink="http://www.w3.org/1999/xlink" width="12px" height="12px" viewBox="115 12  12 12" xmlns="http://www.w3.org/2000/svg">
  <path d="M 121 12  C 124.36 12  127 14.64  127 18  C 127 21.36  124.36 24  121 24  C 117.64 24  115 21.36  115 18  C 115 14.64  117.64 12  121 12  Z " fill-rule="nonzero" fill="#ffffff" stroke="none" />
  <path d="M 121 12.5  C 124.08 12.5  126.5 14.92  126.5 18  C 126.5 21.08  124.08 23.5  121 23.5  C 117.92 23.5  115.5 21.08  115.5 18  C 115.5 14.92  117.92 12.5  121 12.5  Z " stroke-width="1" stroke="#797979" fill="none" />
  <path d="M 121 21  C 119.32 21  118 19.68  118 18  C 118 16.32  119.32 15  121 15  C 122.68 15  124 16.32  124 18  C 124 19.68  122.68 21  121 21  " fill-rule="nonzero" fill="#797979" stroke="none" />
</svg>