<?xml version="1.0" encoding="utf-8"?>
<svg version="1.1" xmlns:xlink="http://www.w3.org/1999/xlink" width="12px" height="12px" viewBox="168 74  12 12" xmlns="http://www.w3.org/2000/svg">
  <path d="M 174 74  C 177.36 74  180 76.64  180 80  C 180 83.36  177.36 86  174 86  C 170.64 86  168 83.36  168 80  C 168 76.64  170.64 74  174 74  Z " fill-rule="nonzero" fill="#f0f0f0" stroke="none" />
  <path d="M 174 74.5  C 177.08 74.5  179.5 76.92  179.5 80  C 179.5 83.08  177.08 85.5  174 85.5  C 170.92 85.5  168.5 83.08  168.5 80  C 168.5 76.92  170.92 74.5  174 74.5  Z " stroke-width="1" stroke="#797979" fill="none" />
  <path d="M 174 83  C 172.32 83  171 81.68  171 80  C 171 78.32  172.32 77  174 77  C 175.68 77  177 78.32  177 80  C 177 81.68  175.68 83  174 83  " fill-rule="nonzero" fill="#797979" stroke="none" />
</svg>