<?xml version="1.0" encoding="utf-8"?>
<svg version="1.1" xmlns:xlink="http://www.w3.org/1999/xlink" width="13px" height="13px" xmlns="http://www.w3.org/2000/svg">
  <g transform="matrix(1 0 0 1 -316 -212 )">
    <path d="M 322.5 212  C 326.14 212  329 214.86  329 218.5  C 329 222.14  326.14 225  322.5 225  C 318.86 225  316 222.14  316 218.5  C 316 214.86  318.86 212  322.5 212  Z " fill-rule="nonzero" fill="#1567ce" stroke="none" />
    <path d="M 322.5 212.5  C 325.86 212.5  328.5 215.14  328.5 218.5  C 328.5 221.86  325.86 224.5  322.5 224.5  C 319.14 224.5  316.5 221.86  316.5 218.5  C 316.5 215.14  319.14 212.5  322.5 212.5  Z " stroke-width="1" stroke="#797979" fill="none" />
  </g>
</svg>