<?xml version="1.0" encoding="utf-8"?>
<svg version="1.1" xmlns:xlink="http://www.w3.org/1999/xlink" width="13px" height="13px" xmlns="http://www.w3.org/2000/svg">
  <g transform="matrix(1 0 0 1 -111 -213 )">
    <path d="M 117.5 213  C 121.14 213  124 215.86  124 219.5  C 124 223.14  121.14 226  117.5 226  C 113.86 226  111 223.14  111 219.5  C 111 215.86  113.86 213  117.5 213  Z " fill-rule="nonzero" fill="#008000" stroke="none" />
    <path d="M 117.5 213.5  C 120.86 213.5  123.5 216.14  123.5 219.5  C 123.5 222.86  120.86 225.5  117.5 225.5  C 114.14 225.5  111.5 222.86  111.5 219.5  C 111.5 216.14  114.14 213.5  117.5 213.5  Z " stroke-width="1" stroke="#797979" fill="none" />
  </g>
</svg>