<?xml version="1.0" encoding="utf-8"?>
<svg version="1.1" xmlns:xlink="http://www.w3.org/1999/xlink" width="12px" height="12px" viewBox="54 183  12 12" xmlns="http://www.w3.org/2000/svg">
  <path d="M 60 183  C 63.36 183  66 185.64  66 189  C 66 192.36  63.36 195  60 195  C 56.64 195  54 192.36  54 189  C 54 185.64  56.64 183  60 183  Z " fill-rule="nonzero" fill="#f0f0f0" stroke="none" />
  <path d="M 60 183.5  C 63.08 183.5  65.5 185.92  65.5 189  C 65.5 192.08  63.08 194.5  60 194.5  C 56.92 194.5  54.5 192.08  54.5 189  C 54.5 185.92  56.92 183.5  60 183.5  Z " stroke-width="1" stroke="#797979" fill="none" />
  <path d="M 60 192  C 58.32 192  57 190.68  57 189  C 57 187.32  58.32 186  60 186  C 61.68 186  63 187.32  63 189  C 63 190.68  61.68 192  60 192  " fill-rule="nonzero" fill="#797979" stroke="none" />
</svg>