<?xml version="1.0" encoding="utf-8"?>
<svg version="1.1" xmlns:xlink="http://www.w3.org/1999/xlink" width="12px" height="12px" viewBox="54 213  12 12" xmlns="http://www.w3.org/2000/svg">
  <path d="M 60 213  C 63.36 213  66 215.64  66 219  C 66 222.36  63.36 225  60 225  C 56.64 225  54 222.36  54 219  C 54 215.64  56.64 213  60 213  Z " fill-rule="nonzero" fill="#f0f0f0" stroke="none" />
  <path d="M 60 213.5  C 63.08 213.5  65.5 215.92  65.5 219  C 65.5 222.08  63.08 224.5  60 224.5  C 56.92 224.5  54.5 222.08  54.5 219  C 54.5 215.92  56.92 213.5  60 213.5  Z " stroke-width="1" stroke="#797979" fill="none" />
  <path d="M 60 222  C 58.32 222  57 220.68  57 219  C 57 217.32  58.32 216  60 216  C 61.68 216  63 217.32  63 219  C 63 220.68  61.68 222  60 222  " fill-rule="nonzero" fill="#797979" stroke="none" />
</svg>