<?xml version="1.0" encoding="utf-8"?>
<svg version="1.1" xmlns:xlink="http://www.w3.org/1999/xlink" width="12px" height="12px" viewBox="54 94  12 12" xmlns="http://www.w3.org/2000/svg">
  <path d="M 60 94  C 63.36 94  66 96.64  66 100  C 66 103.36  63.36 106  60 106  C 56.64 106  54 103.36  54 100  C 54 96.64  56.64 94  60 94  Z " fill-rule="nonzero" fill="#ffffff" stroke="none" />
  <path d="M 60 94.5  C 63.08 94.5  65.5 96.92  65.5 100  C 65.5 103.08  63.08 105.5  60 105.5  C 56.92 105.5  54.5 103.08  54.5 100  C 54.5 96.92  56.92 94.5  60 94.5  Z " stroke-width="1" stroke="#797979" fill="none" />
  <path d="M 60 103  C 58.32 103  57 101.68  57 100  C 57 98.32  58.32 97  60 97  C 61.68 97  63 98.32  63 100  C 63 101.68  61.68 103  60 103  " fill-rule="nonzero" fill="#797979" stroke="none" />
</svg>