<?xml version="1.0" encoding="utf-8"?>
<svg version="1.1" xmlns:xlink="http://www.w3.org/1999/xlink" width="12px" height="12px" viewBox="54 154  12 12" xmlns="http://www.w3.org/2000/svg">
  <path d="M 60 154  C 63.36 154  66 156.64  66 160  C 66 163.36  63.36 166  60 166  C 56.64 166  54 163.36  54 160  C 54 156.64  56.64 154  60 154  Z " fill-rule="nonzero" fill="#ffffff" stroke="none" />
  <path d="M 60 154.5  C 63.08 154.5  65.5 156.92  65.5 160  C 65.5 163.08  63.08 165.5  60 165.5  C 56.92 165.5  54.5 163.08  54.5 160  C 54.5 156.92  56.92 154.5  60 154.5  Z " stroke-width="1" stroke="#797979" fill="none" />
  <path d="M 60 163  C 58.32 163  57 161.68  57 160  C 57 158.32  58.32 157  60 157  C 61.68 157  63 158.32  63 160  C 63 161.68  61.68 163  60 163  " fill-rule="nonzero" fill="#797979" stroke="none" />
</svg>