<?xml version="1.0" encoding="utf-8"?>
<svg version="1.1" xmlns:xlink="http://www.w3.org/1999/xlink" width="335px" height="40px" xmlns="http://www.w3.org/2000/svg">
  <g>
    <path d="M 0.5 5  A 4.5 4.5 0 0 1 5 0.5 L 330 0.5  A 4.5 4.5 0 0 1 334.5 5 L 334.5 35  A 4.5 4.5 0 0 1 330 39.5 L 5 39.5  A 4.5 4.5 0 0 1 0.5 35 L 0.5 5  Z " fill-rule="nonzero" fill="#111822" stroke="none" />
    <path d="M 0.5 5  A 4.5 4.5 0 0 1 5 0.5 L 330 0.5  A 4.5 4.5 0 0 1 334.5 5 L 334.5 35  A 4.5 4.5 0 0 1 330 39.5 L 5 39.5  A 4.5 4.5 0 0 1 0.5 35 L 0.5 5  Z " stroke-width="1" stroke="#007470" fill="none" />
  </g>
</svg>