<?xml version="1.0" encoding="utf-8"?>
<svg version="1.1" xmlns:xlink="http://www.w3.org/1999/xlink" width="20px" height="20px" xmlns="http://www.w3.org/2000/svg">
  <g transform="matrix(1 0 0 1 -1229 -46 )">
    <path d="M 19.5286195286196 14.9494949494949  C 19.8428731762065 15.2637485970819  20 15.645342312009  20 16.0942760942761  C 20 16.5432098765432  19.8428731762065 16.9248035914703  19.5286195286196 17.2390572390572  L 17.2390572390573 19.5286195286195  C 16.9248035914702 19.8428731762065  16.5432098765432 20  16.094276094276 20  C 15.645342312009 20  15.263748597082 19.8428731762065  14.9494949494949 19.5286195286195  L 10 14.5791245791246  L 5.05050505050508 19.5286195286195  C 4.73625140291801 19.8428731762065  4.35465768799099 20  3.90572390572402 20  C 3.45679012345681 20  3.07519640852979 19.8428731762065  2.76094276094273 19.5286195286195  L 0.471380471380371 17.2390572390572  C 0.157126823793533 16.9248035914703  0 16.5432098765432  0 16.0942760942761  C 0 15.645342312009  0.157126823793533 15.2637485970819  0.471380471380371 14.9494949494949  L 5.42087542087552 10  L 0.471380471380371 5.05050505050505  C 0.157126823793533 4.73625140291807  0 4.35465768799102  0 3.9057239057239  C 0 3.45679012345679  0.157126823793533 3.07519640852974  0.471380471380371 2.76094276094276  L 2.76094276094273 0.471380471380474  C 3.07519640852979 0.15712682379349  3.45679012345681 0  3.90572390572402 0  C 4.35465768799099 0  4.73625140291801 0.15712682379349  5.05050505050508 0.471380471380474  L 10 5.42087542087542  L 14.9494949494949 0.471380471380474  C 15.263748597082 0.15712682379349  15.645342312009 0  16.094276094276 0  C 16.5432098765432 0  16.9248035914702 0.15712682379349  17.2390572390573 0.471380471380474  L 19.5286195286196 2.76094276094276  C 19.8428731762065 3.07519640852974  20 3.45679012345679  20 3.9057239057239  C 20 4.35465768799102  19.8428731762065 4.73625140291807  19.5286195286196 5.05050505050505  L 14.5791245791245 10  L 19.5286195286196 14.9494949494949  Z " fill-rule="nonzero" fill="#666666" stroke="none" transform="matrix(1 0 0 1 1229 46 )" />
  </g>
</svg>