<?xml version="1.0" encoding="utf-8"?>
<svg version="1.1" xmlns:xlink="http://www.w3.org/1999/xlink" width="167px" height="26px" xmlns="http://www.w3.org/2000/svg">
  <g transform="matrix(1 0 0 1 -654 -84 )">
    <path d="M 654.5 89  A 4.5 4.5 0 0 1 659 84.5 L 816 84.5  A 4.5 4.5 0 0 1 820.5 89 L 820.5 105  A 4.5 4.5 0 0 1 816 109.5 L 659 109.5  A 4.5 4.5 0 0 1 654.5 105 L 654.5 89  Z " fill-rule="nonzero" fill="#ffffff" stroke="none" />
    <path d="M 654.5 89  A 4.5 4.5 0 0 1 659 84.5 L 816 84.5  A 4.5 4.5 0 0 1 820.5 89 L 820.5 105  A 4.5 4.5 0 0 1 816 109.5 L 659 109.5  A 4.5 4.5 0 0 1 654.5 105 L 654.5 89  Z " stroke-width="1" stroke="#cccccc" fill="none" />
  </g>
</svg>