<?xml version="1.0" encoding="utf-8"?>
<svg version="1.1" xmlns:xlink="http://www.w3.org/1999/xlink" width="12px" height="12px" viewBox="676 523  12 12" xmlns="http://www.w3.org/2000/svg">
  <path d="M 682 523  C 685.36 523  688 525.64  688 529  C 688 532.36  685.36 535  682 535  C 678.64 535  676 532.36  676 529  C 676 525.64  678.64 523  682 523  Z " fill-rule="nonzero" fill="#f0f0f0" stroke="none" />
  <path d="M 682 523.5  C 685.08 523.5  687.5 525.92  687.5 529  C 687.5 532.08  685.08 534.5  682 534.5  C 678.92 534.5  676.5 532.08  676.5 529  C 676.5 525.92  678.92 523.5  682 523.5  Z " stroke-width="1" stroke="#797979" fill="none" />
  <path d="M 682 532  C 680.32 532  679 530.68  679 529  C 679 527.32  680.32 526  682 526  C 683.68 526  685 527.32  685 529  C 685 530.68  683.68 532  682 532  " fill-rule="nonzero" fill="#797979" stroke="none" />
</svg>