<?xml version="1.0" encoding="utf-8"?>
<svg version="1.1" xmlns:xlink="http://www.w3.org/1999/xlink" width="12px" height="12px" viewBox="594 523  12 12" xmlns="http://www.w3.org/2000/svg">
  <path d="M 600 523  C 603.36 523  606 525.64  606 529  C 606 532.36  603.36 535  600 535  C 596.64 535  594 532.36  594 529  C 594 525.64  596.64 523  600 523  Z " fill-rule="nonzero" fill="#f0f0f0" stroke="none" />
  <path d="M 600 523.5  C 603.08 523.5  605.5 525.92  605.5 529  C 605.5 532.08  603.08 534.5  600 534.5  C 596.92 534.5  594.5 532.08  594.5 529  C 594.5 525.92  596.92 523.5  600 523.5  Z " stroke-width="1" stroke="#797979" fill="none" />
  <path d="M 600 532  C 598.32 532  597 530.68  597 529  C 597 527.32  598.32 526  600 526  C 601.68 526  603 527.32  603 529  C 603 530.68  601.68 532  600 532  " fill-rule="nonzero" fill="#797979" stroke="none" />
</svg>