<?xml version="1.0" encoding="utf-8"?>
<svg version="1.1" xmlns:xlink="http://www.w3.org/1999/xlink" width="10px" height="10px" xmlns="http://www.w3.org/2000/svg">
  <g transform="matrix(1 0 0 1 -930 -194 )">
    <path d="M 935 194  C 937.8 194  940 196.2  940 199  C 940 201.8  937.8 204  935 204  C 932.2 204  930 201.8  930 199  C 930 196.2  932.2 194  935 194  Z " fill-rule="nonzero" fill="#588aef" stroke="none" />
    <path d="M 935 194.5  C 937.52 194.5  939.5 196.48  939.5 199  C 939.5 201.52  937.52 203.5  935 203.5  C 932.48 203.5  930.5 201.52  930.5 199  C 930.5 196.48  932.48 194.5  935 194.5  Z " stroke-width="1" stroke="#797979" fill="none" />
  </g>
</svg>