<?xml version="1.0" encoding="utf-8"?>
<svg version="1.1" xmlns:xlink="http://www.w3.org/1999/xlink" width="12px" height="12px" viewBox="174 96  12 12" xmlns="http://www.w3.org/2000/svg">
  <path d="M 180 96  C 183.36 96  186 98.64  186 102  C 186 105.36  183.36 108  180 108  C 176.64 108  174 105.36  174 102  C 174 98.64  176.64 96  180 96  Z " fill-rule="nonzero" fill="#ffffff" stroke="none" />
  <path d="M 180 96.5  C 183.08 96.5  185.5 98.92  185.5 102  C 185.5 105.08  183.08 107.5  180 107.5  C 176.92 107.5  174.5 105.08  174.5 102  C 174.5 98.92  176.92 96.5  180 96.5  Z " stroke-width="1" stroke="#797979" fill="none" />
  <path d="M 180 105  C 178.32 105  177 103.68  177 102  C 177 100.32  178.32 99  180 99  C 181.68 99  183 100.32  183 102  C 183 103.68  181.68 105  180 105  " fill-rule="nonzero" fill="#797979" stroke="none" />
</svg>