<?xml version="1.0" encoding="utf-8"?>
<svg version="1.1" xmlns:xlink="http://www.w3.org/1999/xlink" width="190px" height="30px" xmlns="http://www.w3.org/2000/svg">
  <g transform="matrix(1 0 0 1 -672 -468 )">
    <path d="M 672.5 473  A 4.5 4.5 0 0 1 677 468.5 L 857 468.5  A 4.5 4.5 0 0 1 861.5 473 L 861.5 493  A 4.5 4.5 0 0 1 857 497.5 L 677 497.5  A 4.5 4.5 0 0 1 672.5 493 L 672.5 473  Z " fill-rule="nonzero" fill="#111821" stroke="none" />
    <path d="M 672.5 473  A 4.5 4.5 0 0 1 677 468.5 L 857 468.5  A 4.5 4.5 0 0 1 861.5 473 L 861.5 493  A 4.5 4.5 0 0 1 857 497.5 L 677 497.5  A 4.5 4.5 0 0 1 672.5 493 L 672.5 473  Z " stroke-width="1" stroke="#007470" fill="none" />
  </g>
</svg>