<?xml version="1.0" encoding="utf-8"?>
<svg version="1.1" xmlns:xlink="http://www.w3.org/1999/xlink" width="826px" height="74px" xmlns="http://www.w3.org/2000/svg">
  <g transform="matrix(1 0 0 1 -31 -144 )">
    <path d="M 31.5 149  A 4.5 4.5 0 0 1 36 144.5 L 852 144.5  A 4.5 4.5 0 0 1 856.5 149 L 856.5 213  A 4.5 4.5 0 0 1 852 217.5 L 36 217.5  A 4.5 4.5 0 0 1 31.5 213 L 31.5 149  Z " fill-rule="nonzero" fill="#1e2634" stroke="none" />
    <path d="M 31.5 149  A 4.5 4.5 0 0 1 36 144.5 L 852 144.5  A 4.5 4.5 0 0 1 856.5 149 L 856.5 213  A 4.5 4.5 0 0 1 852 217.5 L 36 217.5  A 4.5 4.5 0 0 1 31.5 213 L 31.5 149  Z " stroke-width="1" stroke="#007470" fill="none" />
  </g>
</svg>