<?xml version="1.0" encoding="utf-8"?>
<svg version="1.1" xmlns:xlink="http://www.w3.org/1999/xlink" width="99px" height="30px" xmlns="http://www.w3.org/2000/svg">
  <g transform="matrix(1 0 0 1 -1229 -468 )">
    <path d="M 1230 473  A 4 4 0 0 1 1234 469 L 1323 469  A 4 4 0 0 1 1327 473 L 1327 493  A 4 4 0 0 1 1323 497 L 1234 497  A 4 4 0 0 1 1230 493 L 1230 473  Z " fill-rule="nonzero" fill="#111821" stroke="none" />
    <path d="M 1229.5 473  A 4.5 4.5 0 0 1 1234 468.5 L 1323 468.5  A 4.5 4.5 0 0 1 1327.5 473 L 1327.5 493  A 4.5 4.5 0 0 1 1323 497.5 L 1234 497.5  A 4.5 4.5 0 0 1 1229.5 493 L 1229.5 473  Z " stroke-width="1" stroke="#999999" fill="none" stroke-opacity="0.207843137254902" />
  </g>
</svg>