<?xml version="1.0" encoding="utf-8"?>
<svg version="1.1" xmlns:xlink="http://www.w3.org/1999/xlink" width="10px" height="8px" xmlns="http://www.w3.org/2000/svg">
  <defs>
    <mask fill="white" id="clip276">
      <path d="M 0 4  C 0 6.20913899919998  2.23857625100004 8  5 8  C 7.76142374899996 8  10 6.20913899919998  10 4  C 10 1.79086100080002  7.76142374899996 0  5 0  C 2.23857625100004 0  0 1.79086100080002  0 4  Z " fill-rule="evenodd" />
    </mask>
  </defs>
  <g transform="matrix(1 0 0 1 -688 -352 )">
    <path d="M 0 4  C 0 6.20913899919998  2.23857625100004 8  5 8  C 7.76142374899996 8  10 6.20913899919998  10 4  C 10 1.79086100080002  7.76142374899996 0  5 0  C 2.23857625100004 0  0 1.79086100080002  0 4  Z " fill-rule="nonzero" fill="#5ad8a6" stroke="none" transform="matrix(1 0 0 1 688 352 )" />
    <path d="M 0 4  C 0 6.20913899919998  2.23857625100004 8  5 8  C 7.76142374899996 8  10 6.20913899919998  10 4  C 10 1.79086100080002  7.76142374899996 0  5 0  C 2.23857625100004 0  0 1.79086100080002  0 4  Z " stroke-width="2" stroke="#797979" fill="none" transform="matrix(1 0 0 1 688 352 )" mask="url(#clip276)" />
  </g>
</svg>