<?xml version="1.0" encoding="utf-8"?>
<svg version="1.1" xmlns:xlink="http://www.w3.org/1999/xlink" width="73px" height="94px" xmlns="http://www.w3.org/2000/svg">
  <defs>
    <mask fill="white" id="clip279">
      <path d="M 59.7295976120602 0.120372403682921  L 60.6087635395047 0  C 60.6087635395047 0  65.0688313157598 34.8927818154806  65.0688313157598 34.8927818154806  C 70.0423120112132 73.5962952329072  72.6860349059602 93.2987012944136  73 94  C 73 94  0 33.5678790180027  0 33.5678790180027  C 15.1499078577895 15.2422625941072  36.5091092090797 3.41062181382665  59.7295976120602 0.120372403682921  Z " fill-rule="evenodd" />
    </mask>
  </defs>
  <g transform="matrix(1 0 0 1 -730 -169 )">
    <path d="M 59.7295976120602 0.120372403682921  L 60.6087635395047 0  C 60.6087635395047 0  65.0688313157598 34.8927818154806  65.0688313157598 34.8927818154806  C 70.0423120112132 73.5962952329072  72.6860349059602 93.2987012944136  73 94  C 73 94  0 33.5678790180027  0 33.5678790180027  C 15.1499078577895 15.2422625941072  36.5091092090797 3.41062181382665  59.7295976120602 0.120372403682921  Z " fill-rule="nonzero" fill="#5d7092" stroke="none" transform="matrix(1 0 0 1 730 169 )" />
    <path d="M 59.7295976120602 0.120372403682921  L 60.6087635395047 0  C 60.6087635395047 0  65.0688313157598 34.8927818154806  65.0688313157598 34.8927818154806  C 70.0423120112132 73.5962952329072  72.6860349059602 93.2987012944136  73 94  C 73 94  0 33.5678790180027  0 33.5678790180027  C 15.1499078577895 15.2422625941072  36.5091092090797 3.41062181382665  59.7295976120602 0.120372403682921  Z " stroke-width="2" stroke="#797979" fill="none" transform="matrix(1 0 0 1 730 169 )" mask="url(#clip279)" />
  </g>
</svg>