<?xml version="1.0" encoding="utf-8"?>
<svg version="1.1" xmlns:xlink="http://www.w3.org/1999/xlink" width="12px" height="96px" xmlns="http://www.w3.org/2000/svg">
  <defs>
    <mask fill="white" id="clip280">
      <path d="M 0 0.826113621281281  C 11.6373308022885 96.549916635539  11.9999964698943 95.9999290169464  11.9999964698943 95.9999290169464  C 11.9999964698943 95.9999290169464  12 0  12 0  C 7.96126512542764 0  3.95365828063473 0.279121428195964  0 0.826113621281281  Z " fill-rule="evenodd" />
    </mask>
  </defs>
  <g transform="matrix(1 0 0 1 -792 -168 )">
    <path d="M 0 0.826113621281281  C 11.6373308022885 96.549916635539  11.9999964698943 95.9999290169464  11.9999964698943 95.9999290169464  C 11.9999964698943 95.9999290169464  12 0  12 0  C 7.96126512542764 0  3.95365828063473 0.279121428195964  0 0.826113621281281  Z " fill-rule="nonzero" fill="#f6bd16" stroke="none" transform="matrix(1 0 0 1 792 168 )" />
    <path d="M 0 0.826113621281281  C 11.6373308022885 96.549916635539  11.9999964698943 95.9999290169464  11.9999964698943 95.9999290169464  C 11.9999964698943 95.9999290169464  12 0  12 0  C 7.96126512542764 0  3.95365828063473 0.279121428195964  0 0.826113621281281  Z " stroke-width="2" stroke="#797979" fill="none" transform="matrix(1 0 0 1 792 168 )" mask="url(#clip280)" />
  </g>
</svg>