<?xml version="1.0" encoding="utf-8"?>
<svg version="1.1" xmlns:xlink="http://www.w3.org/1999/xlink" width="164px" height="156px" xmlns="http://www.w3.org/2000/svg">
  <defs>
    <mask fill="white" id="clip278">
      <path d="M 164 125.945809029793  C 164 125.945809029793  94.8549375293389 60.7281692142847  94.8549375293389 60.7281692142847  C 94.8549375293389 60.7281692142847  21.7692250772809 0  21.7692250772809 0  C -10.8834852221382 39.6442624057722  -6.29788978130864 98.1665089857998  32.1273339990003 132.19216833267  C 70.5525577793092 166.217827679541  128.933358807208 163.452527859127  164 125.945809029793  Z " fill-rule="evenodd" />
    </mask>
  </defs>
  <g transform="matrix(1 0 0 1 -709 -202 )">
    <path d="M 164 125.945809029793  C 164 125.945809029793  94.8549375293389 60.7281692142847  94.8549375293389 60.7281692142847  C 94.8549375293389 60.7281692142847  21.7692250772809 0  21.7692250772809 0  C -10.8834852221382 39.6442624057722  -6.29788978130864 98.1665089857998  32.1273339990003 132.19216833267  C 70.5525577793092 166.217827679541  128.933358807208 163.452527859127  164 125.945809029793  Z " fill-rule="nonzero" fill="#5ad8a6" stroke="none" transform="matrix(1 0 0 1 709 202 )" />
    <path d="M 164 125.945809029793  C 164 125.945809029793  94.8549375293389 60.7281692142847  94.8549375293389 60.7281692142847  C 94.8549375293389 60.7281692142847  21.7692250772809 0  21.7692250772809 0  C -10.8834852221382 39.6442624057722  -6.29788978130864 98.1665089857998  32.1273339990003 132.19216833267  C 70.5525577793092 166.217827679541  128.933358807208 163.452527859127  164 125.945809029793  Z " stroke-width="2" stroke="#797979" fill="none" transform="matrix(1 0 0 1 709 202 )" mask="url(#clip278)" />
  </g>
</svg>