<?xml version="1.0" encoding="utf-8"?>
<svg version="1.1" xmlns:xlink="http://www.w3.org/1999/xlink" width="95px" height="159px" xmlns="http://www.w3.org/2000/svg">
  <defs>
    <mask fill="white" id="clip277">
      <path d="M 0 0  C 0 0  0 94.387382513915  0 94.387382513915  C 0 94.387382513915  69.2504548529919 159  69.2504548529919 159  C 95.1814482868358 131.563745254288  102.228884062542 91.443245043433  87.1847194533825 56.9016354910574  C 72.1405548442222 22.3600259386818  37.8805099156245 0  0 0  Z " fill-rule="evenodd" />
    </mask>
  </defs>
  <g transform="matrix(1 0 0 1 -804 -168 )">
    <path d="M 0 0  C 0 0  0 94.387382513915  0 94.387382513915  C 0 94.387382513915  69.2504548529919 159  69.2504548529919 159  C 95.1814482868358 131.563745254288  102.228884062542 91.443245043433  87.1847194533825 56.9016354910574  C 72.1405548442222 22.3600259386818  37.8805099156245 0  0 0  Z " fill-rule="nonzero" fill="#5b8ff9" stroke="none" transform="matrix(1 0 0 1 804 168 )" />
    <path d="M 0 0  C 0 0  0 94.387382513915  0 94.387382513915  C 0 94.387382513915  69.2504548529919 159  69.2504548529919 159  C 95.1814482868358 131.563745254288  102.228884062542 91.443245043433  87.1847194533825 56.9016354910574  C 72.1405548442222 22.3600259386818  37.8805099156245 0  0 0  Z " stroke-width="2" stroke="#797979" fill="none" transform="matrix(1 0 0 1 804 168 )" mask="url(#clip277)" />
  </g>
</svg>