<?xml version="1.0" encoding="utf-8"?>
<svg version="1.1" xmlns:xlink="http://www.w3.org/1999/xlink" width="332px" height="111px" xmlns="http://www.w3.org/2000/svg">
  <defs>
    <linearGradient gradientUnits="userSpaceOnUse" x1="166" y1="111" x2="166" y2="0" id="LinearGradient362">
      <stop id="Stop363" stop-color="#ffffff" offset="0" />
      <stop id="Stop364" stop-color="#5b8ff9" offset="1" />
    </linearGradient>
    <mask fill="white" id="clip365">
      <path d="M 0 110.480110509162  L 0 74.3477908959444  L 55.1831877769921 71.7435518335459  L 110.4145785877 81.9532710280374  L 166.378132118451 67.948598130841  L 222.070007012101 50.4292806112542  L 278.042296045481 47.6109692892649  L 331.999999999999 0  L 332 111  L 0 110.480110509162  Z " fill-rule="evenodd" />
    </mask>
  </defs>
  <g transform="matrix(1 0 0 1 -60 -874 )">
    <path d="M 0 110.480110509162  L 0 74.3477908959444  L 55.1831877769921 71.7435518335459  L 110.4145785877 81.9532710280374  L 166.378132118451 67.948598130841  L 222.070007012101 50.4292806112542  L 278.042296045481 47.6109692892649  L 331.999999999999 0  L 332 111  L 0 110.480110509162  Z " fill-rule="nonzero" fill="url(#LinearGradient362)" stroke="none" transform="matrix(1 0 0 1 60 874 )" />
    <path d="M 0 110.480110509162  L 0 74.3477908959444  L 55.1831877769921 71.7435518335459  L 110.4145785877 81.9532710280374  L 166.378132118451 67.948598130841  L 222.070007012101 50.4292806112542  L 278.042296045481 47.6109692892649  L 331.999999999999 0  L 332 111  L 0 110.480110509162  Z " stroke-width="2" stroke="#797979" fill="none" transform="matrix(1 0 0 1 60 874 )" mask="url(#clip365)" />
  </g>
</svg>