<?xml version="1.0" encoding="utf-8"?>
<svg version="1.1" xmlns:xlink="http://www.w3.org/1999/xlink" width="4px" height="4px" xmlns="http://www.w3.org/2000/svg">
  <defs>
    <mask fill="white" id="clip366">
      <path d="M 0 2  C 0 3.10456949959996  0.895430500400188 4  2 4  C 3.10456949959981 4  4 3.10456949959996  4 2  C 4 0.895430500400039  3.10456949959981 0  2 0  C 0.895430500400188 0  0 0.895430500400039  0 2  Z " fill-rule="evenodd" />
    </mask>
  </defs>
  <g transform="matrix(1 0 0 1 -56 -950 )">
    <path d="M 0 2  C 0 3.10456949959996  0.895430500400188 4  2 4  C 3.10456949959981 4  4 3.10456949959996  4 2  C 4 0.895430500400039  3.10456949959981 0  2 0  C 0.895430500400188 0  0 0.895430500400039  0 2  Z " fill-rule="nonzero" fill="#5b8ff9" stroke="none" transform="matrix(1 0 0 1 56 950 )" />
    <path d="M 0 2  C 0 3.10456949959996  0.895430500400188 4  2 4  C 3.10456949959981 4  4 3.10456949959996  4 2  C 4 0.895430500400039  3.10456949959981 0  2 0  C 0.895430500400188 0  0 0.895430500400039  0 2  Z " stroke-width="2" stroke="#ffffff" fill="none" stroke-opacity="0.949019607843137" transform="matrix(1 0 0 1 56 950 )" mask="url(#clip366)" />
  </g>
</svg>