<?xml version="1.0" encoding="utf-8"?>
<svg version="1.1" xmlns:xlink="http://www.w3.org/1999/xlink" width="26px" height="26px" xmlns="http://www.w3.org/2000/svg">
  <g transform="matrix(1 0 0 1 -1231 -34 )">
    <path d="M 25.3872053872053 19.4343434343434  C 25.7957351290684 19.8428731762065  26 20.3389450056117  26 20.9225589225589  C 26 21.5061728395062  25.7957351290684 22.0022446689113  25.3872053872053 22.4107744107744  L 22.4107744107746 25.3872053872054  C 22.0022446689113 25.7957351290685  21.5061728395062 26  20.9225589225589 26  C 20.3389450056118 26  19.8428731762065 25.7957351290685  19.4343434343434 25.3872053872054  L 13 18.952861952862  L 6.56565656565658 25.3872053872054  C 6.15712682379353 25.7957351290685  5.66105499438822 26  5.07744107744111 26  C 4.49382716049377 26  3.99775533108868 25.7957351290685  3.58922558922541 25.3872053872054  L 0.612794612794687 22.4107744107744  C 0.204264870931638 22.0022446689113  0 21.5061728395062  0 20.9225589225589  C 0 20.3389450056117  0.204264870931638 19.8428731762065  0.612794612794687 19.4343434343434  L 7.04713804713811 13  L 0.612794612794687 6.56565656565657  C 0.204264870931638 6.15712682379348  0 5.66105499438833  0 5.07744107744107  C 0 4.49382716049383  0.204264870931638 3.99775533108866  0.612794612794687 3.58922558922559  L 3.58922558922541 0.612794612794616  C 3.99775533108868 0.204264870931532  4.49382716049377 0  5.07744107744111 0  C 5.66105499438822 0  6.15712682379353 0.204264870931532  6.56565656565658 0.612794612794616  L 13 7.04713804713805  L 19.4343434343434 0.612794612794616  C 19.8428731762065 0.204264870931532  20.3389450056118 0  20.9225589225589 0  C 21.5061728395062 0  22.0022446689113 0.204264870931532  22.4107744107746 0.612794612794616  L 25.3872053872053 3.58922558922559  C 25.7957351290684 3.99775533108866  26 4.49382716049383  26 5.07744107744107  C 26 5.66105499438833  25.7957351290684 6.15712682379348  25.3872053872053 6.56565656565657  L 18.9528619528619 13  L 25.3872053872053 19.4343434343434  Z " fill-rule="nonzero" fill="#cccccc" stroke="none" transform="matrix(1 0 0 1 1231 34 )" />
  </g>
</svg>