<?xml version="1.0" encoding="utf-8"?>
<svg version="1.1" xmlns:xlink="http://www.w3.org/1999/xlink" width="25px" height="25px" xmlns="http://www.w3.org/2000/svg">
  <g transform="matrix(1 0 0 1 -121 -312 )">
    <path d="M 18.5546875 15.0227864583333  C 18.8042534722221 15.3591579861111  18.8313802083333 15.7172309027778  18.6360677083333 16.0970052083333  C 18.4516059027779 16.4767795138889  18.1423611111112 16.6666666666667  17.7083333333333 16.6666666666667  L 7.29166666666669 16.6666666666667  C 6.85763888888877 16.6666666666667  6.5483940972221 16.4767795138889  6.36393229166667 16.0970052083333  C 6.16861979166667 15.7172309027778  6.1957465277779 15.3591579861111  6.4453125 15.0227864583333  L 11.6536458333333 7.73111979166669  C 11.8598090277779 7.43815104166669  12.1419270833333 7.29166666666669  12.5 7.29166666666669  C 12.8580729166667 7.29166666666669  13.1401909722221 7.43815104166669  13.3463541666667 7.73111979166669  L 18.5546875 15.0227864583333  Z M 20.6787109375 20.6787109375  C 20.7817925347221 20.5756293402778  20.8333333333333 20.4535590277778  20.8333333333333 20.3125  L 20.8333333333333 4.6875  C 20.8333333333333 4.54644097222223  20.7817925347221 4.42437065972223  20.6787109375 4.3212890625  C 20.5756293402779 4.21820746527777  20.4535590277779 4.16666666666669  20.3125 4.16666666666669  L 4.6875 4.16666666666669  C 4.5464409722221 4.16666666666669  4.4243706597221 4.21820746527777  4.3212890625 4.3212890625  C 4.2182074652779 4.42437065972223  4.16666666666667 4.54644097222223  4.16666666666667 4.6875  L 4.16666666666667 20.3125  C 4.16666666666667 20.4535590277778  4.2182074652779 20.5756293402778  4.3212890625 20.6787109375  C 4.4243706597221 20.7817925347222  4.5464409722221 20.8333333333333  4.6875 20.8333333333333  L 20.3125 20.8333333333333  C 20.4535590277779 20.8333333333333  20.5756293402779 20.7817925347222  20.6787109375 20.6787109375  Z M 23.6246744791667 1.37532552083331  C 24.5415581597221 2.29220920138886  25 3.39626736111114  25 4.6875  L 25 20.3125  C 25 21.6037326388889  24.5415581597221 22.7077907986111  23.6246744791667 23.6246744791667  C 22.7077907986112 24.5415581597222  21.6037326388888 25  20.3125 25  L 4.6875 25  C 3.39626736111123 25  2.29220920138877 24.5415581597222  1.37532552083333 23.6246744791667  C 0.458441840277899 22.7077907986111  0 21.6037326388889  0 20.3125  L 0 4.6875  C 0 3.39626736111114  0.458441840277899 2.29220920138886  1.37532552083333 1.37532552083331  C 2.29220920138877 0.458441840277771  3.39626736111123 0  4.6875 0  L 20.3125 0  C 21.6037326388888 0  22.7077907986112 0.458441840277771  23.6246744791667 1.37532552083331  Z " fill-rule="nonzero" fill="#33ff33" stroke="none" transform="matrix(1 0 0 1 121 312 )" />
  </g>
</svg>