<?xml version="1.0" encoding="utf-8"?>
<svg version="1.1" xmlns:xlink="http://www.w3.org/1999/xlink" width="25px" height="25px" xmlns="http://www.w3.org/2000/svg">
  <g transform="matrix(1 0 0 1 -120 -627 )">
    <path d="M 17.7083333333333 8.33333333333337  C 18.142361111111 8.33333333333337  18.4516059027777 8.52322048611109  18.6360677083333 8.90299479166663  C 18.8313802083333 9.28276909722229  18.8042534722223 9.64084201388891  18.5546875 9.97721354166663  L 13.3463541666667 17.2688802083334  C 13.1401909722223 17.5618489583334  12.8580729166667 17.7083333333334  12.5 17.7083333333334  C 12.1419270833333 17.7083333333334  11.8598090277777 17.5618489583334  11.6536458333333 17.2688802083334  L 6.4453125 9.97721354166663  C 6.19574652777771 9.64084201388891  6.16861979166667 9.28276909722229  6.36393229166667 8.90299479166663  C 6.54839409722228 8.52322048611109  6.85763888888894 8.33333333333337  7.29166666666667 8.33333333333337  L 17.7083333333333 8.33333333333337  Z M 20.6787109375 20.6787109375  C 20.7817925347223 20.5756293402777  20.8333333333333 20.4535590277777  20.8333333333333 20.3125  L 20.8333333333333 4.6875  C 20.8333333333333 4.54644097222229  20.7817925347223 4.42437065972229  20.6787109375 4.3212890625  C 20.5756293402777 4.21820746527771  20.4535590277777 4.16666666666663  20.3125 4.16666666666663  L 4.6875 4.16666666666663  C 4.54644097222229 4.16666666666663  4.42437065972229 4.21820746527771  4.3212890625 4.3212890625  C 4.21820746527771 4.42437065972229  4.16666666666667 4.54644097222229  4.16666666666667 4.6875  L 4.16666666666667 20.3125  C 4.16666666666667 20.4535590277777  4.21820746527771 20.5756293402777  4.3212890625 20.6787109375  C 4.42437065972229 20.7817925347223  4.54644097222229 20.8333333333334  4.6875 20.8333333333334  L 20.3125 20.8333333333334  C 20.4535590277777 20.8333333333334  20.5756293402777 20.7817925347223  20.6787109375 20.6787109375  Z M 23.6246744791667 1.37532552083337  C 24.5415581597223 2.29220920138891  25 3.39626736111109  25 4.6875  L 25 20.3125  C 25 21.6037326388889  24.5415581597223 22.7077907986111  23.6246744791667 23.6246744791666  C 22.707790798611 24.5415581597223  21.603732638889 25  20.3125 25  L 4.6875 25  C 3.39626736111106 25  2.29220920138894 24.5415581597223  1.37532552083333 23.6246744791666  C 0.458441840277715 22.7077907986111  0 21.6037326388889  0 20.3125  L 0 4.6875  C 0 3.39626736111109  0.458441840277715 2.29220920138891  1.37532552083333 1.37532552083337  C 2.29220920138894 0.458441840277715  3.39626736111106 0  4.6875 0  L 20.3125 0  C 21.603732638889 0  22.707790798611 0.458441840277715  23.6246744791667 1.37532552083337  Z " fill-rule="nonzero" fill="#33ff33" stroke="none" transform="matrix(1 0 0 1 120 627 )" />
  </g>
</svg>