<?xml version="1.0" encoding="utf-8"?>
<svg version="1.1" xmlns:xlink="http://www.w3.org/1999/xlink" width="25px" height="25px" xmlns="http://www.w3.org/2000/svg">
  <g transform="matrix(1 0 0 1 -129 -383 )">
    <path d="M 17.7083333333333 8.33333333333334  C 18.1423611111111 8.33333333333334  18.4516059027777 8.52322048611111  18.6360677083333 8.90299479166666  C 18.8313802083333 9.28276909722223  18.8042534722223 9.64084201388889  18.5546875 9.97721354166666  L 13.3463541666667 17.2688802083333  C 13.1401909722223 17.5618489583333  12.8580729166667 17.7083333333333  12.5 17.7083333333333  C 12.1419270833333 17.7083333333333  11.8598090277777 17.5618489583333  11.6536458333333 17.2688802083333  L 6.4453125 9.97721354166666  C 6.19574652777771 9.64084201388889  6.16861979166669 9.28276909722223  6.36393229166669 8.90299479166666  C 6.54839409722228 8.52322048611111  6.85763888888894 8.33333333333334  7.29166666666669 8.33333333333334  L 17.7083333333333 8.33333333333334  Z M 20.6787109375 20.6787109375  C 20.7817925347223 20.5756293402778  20.8333333333333 20.4535590277778  20.8333333333333 20.3125  L 20.8333333333333 4.6875  C 20.8333333333333 4.54644097222223  20.7817925347223 4.42437065972223  20.6787109375 4.3212890625  C 20.5756293402777 4.21820746527777  20.4535590277777 4.16666666666666  20.3125 4.16666666666666  L 4.6875 4.16666666666666  C 4.54644097222229 4.16666666666666  4.42437065972229 4.21820746527777  4.3212890625 4.3212890625  C 4.21820746527771 4.42437065972223  4.16666666666669 4.54644097222223  4.16666666666669 4.6875  L 4.16666666666669 20.3125  C 4.16666666666669 20.4535590277778  4.21820746527771 20.5756293402778  4.3212890625 20.6787109375  C 4.42437065972229 20.7817925347222  4.54644097222229 20.8333333333333  4.6875 20.8333333333333  L 20.3125 20.8333333333333  C 20.4535590277777 20.8333333333333  20.5756293402777 20.7817925347222  20.6787109375 20.6787109375  Z M 23.6246744791667 1.37532552083334  C 24.5415581597223 2.29220920138889  25 3.39626736111111  25 4.6875  L 25 20.3125  C 25 21.6037326388889  24.5415581597223 22.7077907986111  23.6246744791667 23.6246744791667  C 22.7077907986111 24.5415581597222  21.6037326388889 25  20.3125 25  L 4.6875 25  C 3.39626736111106 25  2.29220920138894 24.5415581597222  1.37532552083331 23.6246744791667  C 0.458441840277715 22.7077907986111  0 21.6037326388889  0 20.3125  L 0 4.6875  C 0 3.39626736111111  0.458441840277715 2.29220920138889  1.37532552083331 1.37532552083334  C 2.29220920138894 0.458441840277771  3.39626736111106 0  4.6875 0  L 20.3125 0  C 21.6037326388889 0  22.7077907986111 0.458441840277771  23.6246744791667 1.37532552083334  Z " fill-rule="nonzero" fill="#2ddf2d" stroke="none" transform="matrix(1 0 0 1 129 383 )" />
  </g>
</svg>