<?xml version="1.0" encoding="utf-8"?>
<svg version="1.1" xmlns:xlink="http://www.w3.org/1999/xlink" width="30px" height="30px" xmlns="http://www.w3.org/2000/svg">
  <g transform="matrix(1 0 0 1 -1189 -533 )">
    <path d="M 21.25 10  C 21.7708333333333 10  22.1419270833333 10.2278645833333  22.36328125 10.68359375  C 22.59765625 11.1393229166667  22.5651041666667 11.5690104166667  22.265625 11.97265625  L 16.015625 20.72265625  C 15.7682291666667 21.07421875  15.4296875 21.25  15 21.25  C 14.5703125 21.25  14.2317708333333 21.07421875  13.984375 20.72265625  L 7.734375 11.97265625  C 7.43489583333326 11.5690104166667  7.40234375 11.1393229166667  7.63671875 10.68359375  C 7.85807291666674 10.2278645833333  8.22916666666674 10  8.75 10  L 21.25 10  Z M 24.814453125 24.814453125  C 24.9381510416667 24.6907552083333  25 24.5442708333333  25 24.375  L 25 5.625  C 25 5.45572916666669  24.9381510416667 5.30924479166669  24.814453125 5.185546875  C 24.6907552083333 5.06184895833331  24.5442708333333 5  24.375 5  L 5.625 5  C 5.45572916666674 5  5.30924479166674 5.06184895833331  5.185546875 5.185546875  C 5.06184895833326 5.30924479166669  5 5.45572916666669  5 5.625  L 5 24.375  C 5 24.5442708333333  5.06184895833326 24.6907552083333  5.185546875 24.814453125  C 5.30924479166674 24.9381510416667  5.45572916666674 25  5.625 25  L 24.375 25  C 24.5442708333333 25  24.6907552083333 24.9381510416667  24.814453125 24.814453125  Z M 28.349609375 1.650390625  C 29.4498697916667 2.75065104166666  30 4.07552083333334  30 5.625  L 30 24.375  C 30 25.9244791666667  29.4498697916667 27.2493489583333  28.349609375 28.349609375  C 27.2493489583333 29.4498697916667  25.9244791666667 30  24.375 30  L 5.625 30  C 4.07552083333326 30  2.75065104166674 29.4498697916667  1.650390625 28.349609375  C 0.550130208333258 27.2493489583333  0 25.9244791666667  0 24.375  L 0 5.625  C 0 4.07552083333334  0.550130208333258 2.75065104166666  1.650390625 1.650390625  C 2.75065104166674 0.550130208333314  4.07552083333326 0  5.625 0  L 24.375 0  C 25.9244791666667 0  27.2493489583333 0.550130208333314  28.349609375 1.650390625  Z " fill-rule="nonzero" fill="#cccccc" stroke="none" transform="matrix(1 0 0 1 1189 533 )" />
  </g>
</svg>