<?xml version="1.0" encoding="utf-8"?>
<svg version="1.1" xmlns:xlink="http://www.w3.org/1999/xlink" width="30px" height="30px" xmlns="http://www.w3.org/2000/svg">
  <g transform="matrix(1 0 0 1 -1189 -465 )">
    <path d="M 22.265625 18.02734375  C 22.5651041666665 18.4309895833333  22.59765625 18.8606770833333  22.36328125 19.31640625  C 22.1419270833335 19.7721354166667  21.7708333333335 20  21.25 20  L 8.75 20  C 8.22916666666652 20  7.85807291666652 19.7721354166667  7.63671875 19.31640625  C 7.40234375 18.8606770833333  7.43489583333348 18.4309895833333  7.734375 18.02734375  L 13.984375 9.27734375  C 14.2317708333335 8.92578125  14.5703125 8.75  15 8.75  C 15.4296875 8.75  15.7682291666665 8.92578125  16.015625 9.27734375  L 22.265625 18.02734375  Z M 24.814453125 24.814453125  C 24.9381510416665 24.6907552083333  25 24.5442708333333  25 24.375  L 25 5.625  C 25 5.45572916666669  24.9381510416665 5.30924479166669  24.814453125 5.185546875  C 24.6907552083335 5.06184895833331  24.5442708333335 5  24.375 5  L 5.625 5  C 5.45572916666652 5  5.30924479166652 5.06184895833331  5.185546875 5.185546875  C 5.06184895833348 5.30924479166669  5 5.45572916666669  5 5.625  L 5 24.375  C 5 24.5442708333333  5.06184895833348 24.6907552083333  5.185546875 24.814453125  C 5.30924479166652 24.9381510416667  5.45572916666652 25  5.625 25  L 24.375 25  C 24.5442708333335 25  24.6907552083335 24.9381510416667  24.814453125 24.814453125  Z M 28.349609375 1.650390625  C 29.4498697916665 2.75065104166666  30 4.07552083333334  30 5.625  L 30 24.375  C 30 25.9244791666667  29.4498697916665 27.2493489583333  28.349609375 28.349609375  C 27.2493489583335 29.4498697916667  25.9244791666665 30  24.375 30  L 5.625 30  C 4.07552083333348 30  2.75065104166652 29.4498697916667  1.650390625 28.349609375  C 0.550130208333485 27.2493489583333  0 25.9244791666667  0 24.375  L 0 5.625  C 0 4.07552083333334  0.550130208333485 2.75065104166666  1.650390625 1.650390625  C 2.75065104166652 0.550130208333314  4.07552083333348 0  5.625 0  L 24.375 0  C 25.9244791666665 0  27.2493489583335 0.550130208333314  28.349609375 1.650390625  Z " fill-rule="nonzero" fill="#cccccc" stroke="none" transform="matrix(1 0 0 1 1189 465 )" />
  </g>
</svg>