<?xml version="1.0" encoding="utf-8"?>
<svg version="1.1" xmlns:xlink="http://www.w3.org/1999/xlink" width="37px" height="34px" xmlns="http://www.w3.org/2000/svg">
  <g transform="matrix(1 0 0 1 -650 -652 )">
    <path d="M 686.5 658.8  C 686.5 658.8  686.5 679.2  686.5 679.2  C 686.5 682.905081081081  678.098235294118 685.5  668.5 685.5  C 658.901764705882 685.5  650.5 682.905081081081  650.5 679.2  C 650.5 679.2  650.5 658.8  650.5 658.8  C 650.5 655.094918918919  658.901764705882 652.5  668.5 652.5  C 678.098235294118 652.5  686.5 655.094918918919  686.5 658.8  Z " fill-rule="nonzero" fill="#999999" stroke="none" />
    <path d="M 650.5 659.1  C 650.5 655.404  658.42 652.5  668.5 652.5  C 678.58 652.5  686.5 655.404  686.5 659.1  C 686.5 659.1  686.5 678.9  686.5 678.9  C 686.5 682.596  678.58 685.5  668.5 685.5  C 658.42 685.5  650.5 682.596  650.5 678.9  C 650.5 678.9  650.5 659.1  650.5 659.1  Z " stroke-width="1" stroke="#797979" fill="none" />
    <path d="M 686.5 658.8  C 686.5 662.328  678.58 665.1  668.5 665.1  C 658.42 665.1  650.5 662.328  650.5 658.8  " stroke-width="1" stroke="#797979" fill="none" />
  </g>
</svg>