<?xml version="1.0" encoding="utf-8"?>
<svg version="1.1" xmlns:xlink="http://www.w3.org/1999/xlink" width="37px" height="34px" xmlns="http://www.w3.org/2000/svg">
  <g transform="matrix(1 0 0 1 -475 -646 )">
    <path d="M 511.5 652.8  C 511.5 652.8  511.5 673.2  511.5 673.2  C 511.5 676.905081081081  503.098235294118 679.5  493.5 679.5  C 483.901764705882 679.5  475.5 676.905081081081  475.5 673.2  C 475.5 673.2  475.5 652.8  475.5 652.8  C 475.5 649.094918918919  483.901764705882 646.5  493.5 646.5  C 503.098235294118 646.5  511.5 649.094918918919  511.5 652.8  Z " fill-rule="nonzero" fill="#33ff33" stroke="none" />
    <path d="M 475.5 653.1  C 475.5 649.404  483.42 646.5  493.5 646.5  C 503.58 646.5  511.5 649.404  511.5 653.1  C 511.5 653.1  511.5 672.9  511.5 672.9  C 511.5 676.596  503.58 679.5  493.5 679.5  C 483.42 679.5  475.5 676.596  475.5 672.9  C 475.5 672.9  475.5 653.1  475.5 653.1  Z " stroke-width="1" stroke="#797979" fill="none" />
    <path d="M 511.5 652.8  C 511.5 656.328  503.58 659.1  493.5 659.1  C 483.42 659.1  475.5 656.328  475.5 652.8  " stroke-width="1" stroke="#797979" fill="none" />
  </g>
</svg>