<?xml version="1.0" encoding="utf-8"?>
<svg version="1.1" xmlns:xlink="http://www.w3.org/1999/xlink" width="37px" height="34px" xmlns="http://www.w3.org/2000/svg">
  <g transform="matrix(1 0 0 1 -887 -646 )">
    <path d="M 923.5 652.8  C 923.5 652.8  923.5 673.2  923.5 673.2  C 923.5 676.905081081081  915.098235294118 679.5  905.5 679.5  C 895.901764705882 679.5  887.5 676.905081081081  887.5 673.2  C 887.5 673.2  887.5 652.8  887.5 652.8  C 887.5 649.094918918919  895.901764705882 646.5  905.5 646.5  C 915.098235294118 646.5  923.5 649.094918918919  923.5 652.8  Z " fill-rule="nonzero" fill="#faad14" stroke="none" />
    <path d="M 887.5 653.1  C 887.5 649.404  895.42 646.5  905.5 646.5  C 915.58 646.5  923.5 649.404  923.5 653.1  C 923.5 653.1  923.5 672.9  923.5 672.9  C 923.5 676.596  915.58 679.5  905.5 679.5  C 895.42 679.5  887.5 676.596  887.5 672.9  C 887.5 672.9  887.5 653.1  887.5 653.1  Z " stroke-width="1" stroke="#797979" fill="none" />
    <path d="M 923.5 652.8  C 923.5 656.328  915.58 659.1  905.5 659.1  C 895.42 659.1  887.5 656.328  887.5 652.8  " stroke-width="1" stroke="#797979" fill="none" />
  </g>
</svg>