<?xml version="1.0" encoding="utf-8"?>
<svg version="1.1" xmlns:xlink="http://www.w3.org/1999/xlink" width="37px" height="34px" xmlns="http://www.w3.org/2000/svg">
  <g transform="matrix(1 0 0 1 -1062 -646 )">
    <path d="M 1098.5 652.8  C 1098.5 652.8  1098.5 673.2  1098.5 673.2  C 1098.5 676.905081081081  1090.09823529412 679.5  1080.5 679.5  C 1070.90176470588 679.5  1062.5 676.905081081081  1062.5 673.2  C 1062.5 673.2  1062.5 652.8  1062.5 652.8  C 1062.5 649.094918918919  1070.90176470588 646.5  1080.5 646.5  C 1090.09823529412 646.5  1098.5 649.094918918919  1098.5 652.8  Z " fill-rule="nonzero" fill="#f5222d" stroke="none" />
    <path d="M 1062.5 653.1  C 1062.5 649.404  1070.42 646.5  1080.5 646.5  C 1090.58 646.5  1098.5 649.404  1098.5 653.1  C 1098.5 653.1  1098.5 672.9  1098.5 672.9  C 1098.5 676.596  1090.58 679.5  1080.5 679.5  C 1070.42 679.5  1062.5 676.596  1062.5 672.9  C 1062.5 672.9  1062.5 653.1  1062.5 653.1  Z " stroke-width="1" stroke="#797979" fill="none" />
    <path d="M 1098.5 652.8  C 1098.5 656.328  1090.58 659.1  1080.5 659.1  C 1070.42 659.1  1062.5 656.328  1062.5 652.8  " stroke-width="1" stroke="#797979" fill="none" />
  </g>
</svg>