<?xml version="1.0" encoding="utf-8"?>
<svg version="1.1" xmlns:xlink="http://www.w3.org/1999/xlink" width="80px" height="69px" xmlns="http://www.w3.org/2000/svg">
  <defs>
    <linearGradient gradientUnits="userSpaceOnUse" x1="669" y1="583" x2="669" y2="652" id="LinearGradient394">
      <stop id="Stop395" stop-color="#999999" stop-opacity="0" offset="0" />
      <stop id="Stop396" stop-color="#e4e4e4" offset="1" />
    </linearGradient>
  </defs>
  <g transform="matrix(1 0 0 1 -629 -583 )">
    <path d="M 629.5 593  A 9.5 9.5 0 0 1 639 583.5 L 699 583.5  A 9.5 9.5 0 0 1 708.5 593 L 708.5 642  A 9.5 9.5 0 0 1 699 651.5 L 639 651.5  A 9.5 9.5 0 0 1 629.5 642 L 629.5 593  Z " fill-rule="nonzero" fill="url(#LinearGradient394)" stroke="none" />
    <path d="M 629.5 593  A 9.5 9.5 0 0 1 639 583.5 L 699 583.5  A 9.5 9.5 0 0 1 708.5 593 L 708.5 642  A 9.5 9.5 0 0 1 699 651.5 L 639 651.5  A 9.5 9.5 0 0 1 629.5 642 L 629.5 593  Z " stroke-width="1" stroke="#797979" fill="none" />
  </g>
</svg>