<?xml version="1.0" encoding="utf-8"?>
<svg version="1.1" xmlns:xlink="http://www.w3.org/1999/xlink" width="60px" height="57px" xmlns="http://www.w3.org/2000/svg">
  <g transform="matrix(1 0 0 1 -1841 -168 )">
    <path d="M 1842 172  A 3 3 0 0 1 1845 169 L 1897 169  A 3 3 0 0 1 1900 172 L 1900 221  A 3 3 0 0 1 1897 224 L 1845 224  A 3 3 0 0 1 1842 221 L 1842 172  Z " fill-rule="nonzero" fill="#ff3399" stroke="none" fill-opacity="0.0980392156862745" />
    <path d="M 1841.5 172  A 3.5 3.5 0 0 1 1845 168.5 L 1897 168.5  A 3.5 3.5 0 0 1 1900.5 172 L 1900.5 221  A 3.5 3.5 0 0 1 1897 224.5 L 1845 224.5  A 3.5 3.5 0 0 1 1841.5 221 L 1841.5 172  Z " stroke-width="1" stroke-dasharray="9,4" stroke="#ff3399" fill="none" stroke-dashoffset="0.5" />
  </g>
</svg>