<?xml version="1.0" encoding="utf-8"?>
<svg version="1.1" xmlns:xlink="http://www.w3.org/1999/xlink" width="625px" height="49px" xmlns="http://www.w3.org/2000/svg">
  <g transform="matrix(1 0 0 1 0 -33 )">
    <path d="M 0.5 38  A 4.5 4.5 0 0 1 5 33.5 L 620 33.5  A 4.5 4.5 0 0 1 624.5 38 L 624.5 77  A 4.5 4.5 0 0 1 620 81.5 L 5 81.5  A 4.5 4.5 0 0 1 0.5 77 L 0.5 38  Z " fill-rule="nonzero" fill="#1e2634" stroke="none" />
    <path d="M 0.5 38  A 4.5 4.5 0 0 1 5 33.5 L 620 33.5  A 4.5 4.5 0 0 1 624.5 38 L 624.5 77  A 4.5 4.5 0 0 1 620 81.5 L 5 81.5  A 4.5 4.5 0 0 1 0.5 77 L 0.5 38  Z " stroke-width="1" stroke="#cccccc" fill="none" />
  </g>
</svg>