<?xml version="1.0" encoding="utf-8"?>
<svg version="1.1" xmlns:xlink="http://www.w3.org/1999/xlink" width="14px" height="14px" xmlns="http://www.w3.org/2000/svg">
  <g transform="matrix(1 0 0 1 -1121 -665 )">
    <path d="M 1128 665  C 1131.92 665  1135 668.08  1135 672  C 1135 675.92  1131.92 679  1128 679  C 1124.08 679  1121 675.92  1121 672  C 1121 668.08  1124.08 665  1128 665  Z " fill-rule="nonzero" fill="#008000" stroke="none" />
    <path d="M 1128 665.5  C 1131.64 665.5  1134.5 668.36  1134.5 672  C 1134.5 675.64  1131.64 678.5  1128 678.5  C 1124.36 678.5  1121.5 675.64  1121.5 672  C 1121.5 668.36  1124.36 665.5  1128 665.5  Z " stroke-width="1" stroke="#797979" fill="none" />
  </g>
</svg>