<?xml version="1.0" encoding="utf-8"?>
<svg version="1.1" xmlns:xlink="http://www.w3.org/1999/xlink" width="26px" height="26px" xmlns="http://www.w3.org/2000/svg">
  <defs>
    <filter x="827px" y="830px" width="26px" height="26px" filterUnits="userSpaceOnUse" id="filter35">
      <feOffset dx="0" dy="1" in="SourceAlpha" result="shadowOffsetInner" />
      <feGaussianBlur stdDeviation="1" in="shadowOffsetInner" result="shadowGaussian" />
      <feComposite in2="shadowGaussian" operator="atop" in="SourceAlpha" result="shadowComposite" />
      <feColorMatrix type="matrix" values="0 0 0 0 0  0 0 0 0 0  0 0 0 0 0  0 0 0 0.349019607843137 0  " in="shadowComposite" />
    </filter>
    <g id="widget36">
      <path d="M 840 831  C 846.16 831  851 835.84  851 842  C 851 848.16  846.16 853  840 853  C 833.84 853  829 848.16  829 842  C 829 835.84  833.84 831  840 831  Z " fill-rule="nonzero" fill="#ffffff" stroke="none" />
      <path d="M 840 831.5  C 845.88 831.5  850.5 836.12  850.5 842  C 850.5 847.88  845.88 852.5  840 852.5  C 834.12 852.5  829.5 847.88  829.5 842  C 829.5 836.12  834.12 831.5  840 831.5  Z " stroke-width="1" stroke="#d9d9d9" fill="none" />
    </g>
  </defs>
  <g transform="matrix(1 0 0 1 -827 -830 )">
    <use xlink:href="#widget36" filter="url(#filter35)" />
    <use xlink:href="#widget36" />
  </g>
</svg>