<?xml version="1.0" encoding="utf-8"?>
<svg version="1.1" xmlns:xlink="http://www.w3.org/1999/xlink" width="26px" height="26px" xmlns="http://www.w3.org/2000/svg">
  <defs>
    <filter x="822px" y="811px" width="26px" height="26px" filterUnits="userSpaceOnUse" id="filter57">
      <feOffset dx="0" dy="1" in="SourceAlpha" result="shadowOffsetInner" />
      <feGaussianBlur stdDeviation="1" in="shadowOffsetInner" result="shadowGaussian" />
      <feComposite in2="shadowGaussian" operator="atop" in="SourceAlpha" result="shadowComposite" />
      <feColorMatrix type="matrix" values="0 0 0 0 0  0 0 0 0 0  0 0 0 0 0  0 0 0 0.349019607843137 0  " in="shadowComposite" />
    </filter>
    <g id="widget58">
      <path d="M 835 812  C 841.16 812  846 816.84  846 823  C 846 829.16  841.16 834  835 834  C 828.84 834  824 829.16  824 823  C 824 816.84  828.84 812  835 812  Z " fill-rule="nonzero" fill="#ffffff" stroke="none" />
      <path d="M 835 812.5  C 840.88 812.5  845.5 817.12  845.5 823  C 845.5 828.88  840.88 833.5  835 833.5  C 829.12 833.5  824.5 828.88  824.5 823  C 824.5 817.12  829.12 812.5  835 812.5  Z " stroke-width="1" stroke="#d9d9d9" fill="none" />
    </g>
  </defs>
  <g transform="matrix(1 0 0 1 -822 -811 )">
    <use xlink:href="#widget58" filter="url(#filter57)" />
    <use xlink:href="#widget58" />
  </g>
</svg>