<?xml version="1.0" encoding="utf-8"?>
<svg version="1.1" xmlns:xlink="http://www.w3.org/1999/xlink" width="901px" height="152px" xmlns="http://www.w3.org/2000/svg">
  <g transform="matrix(1 0 0 1 -569 -623 )">
    <path d="M 897.999999999996 54.9175862964748  L 0 92.8606459194938  C 0 92.8606459194938  51.3729977116704 109.835172592949  132.133108131095 111.458413394567  C 212.89321855052 113.081654196185  223.595118647074 152.639279197628  263.757106237787 148.728145663669  C 303.919093828501 144.81701212971  320.567505720826 66.8996051247962  380.160183066362 66.8996051247963  C 439.752860411899 66.8996051247965  439.7528604119 88.8666396433863  515.827906976742 89.1694214465821  C 591.902953541585 89.4722032497779  535.048270289812 92.475164134673  641.519558485865 88.6738987509759  C 747.990846681917 84.872633367279  706.892448512582 0  766.485125858118 0  C 826.077803203655 0  805.528604118991 54.9175862964748  897.999999999996 54.9175862964748  Z " fill-rule="nonzero" fill="#27364e" stroke="none" transform="matrix(1 0 0 1 570 624 )" />
    <path d="M 0 92.8606459194938  C 0 92.8606459194938  51.3729977116704 109.835172592949  132.133108131095 111.458413394567  C 212.89321855052 113.081654196185  223.595118647074 152.639279197628  263.757106237787 148.728145663669  C 303.919093828501 144.81701212971  320.567505720826 66.8996051247962  380.160183066362 66.8996051247963  C 439.752860411899 66.8996051247965  439.7528604119 88.8666396433863  515.827906976742 89.1694214465821  C 591.902953541585 89.4722032497779  535.048270289812 92.475164134673  641.519558485865 88.6738987509759  C 747.990846681917 84.872633367279  706.892448512582 0  766.485125858118 0  C 826.077803203655 0  805.528604118991 54.9175862964748  897.999999999996 54.9175862964748  " stroke-width="2" stroke="#5b8ff9" fill="none" transform="matrix(1 0 0 1 570 624 )" />
  </g>
</svg>