<?xml version="1.0" encoding="utf-8"?>
<svg version="1.1" xmlns:xlink="http://www.w3.org/1999/xlink" width="901px" height="148px" xmlns="http://www.w3.org/2000/svg">
  <g transform="matrix(1 0 0 1 -564 -269 )">
    <path d="M 897.999999999996 53.4432886777775  L 0 90.3677426733329  C 0 90.3677426733329  51.3729977116704 106.886577355555  132.133108131095 108.466241222901  C 212.89321855052 110.045905090247  223.595118647074 148.541580427222  263.757106237787 144.735443766658  C 303.919093828501 140.929307106093  320.567505720826 65.1036425711104  380.160183066362 65.1036425711105  C 439.752860411899 65.1036425711107  439.7528604119 86.4809580422216  515.827906976742 86.7756114748618  C 591.902953541585 87.070264907502  535.048270289812 89.9926093928025  641.519558485865 86.2933914019564  C 747.990846681917 82.5941734111104  706.892448512582 0  766.485125858118 0  C 826.077803203655 0  805.528604118991 53.4432886777775  897.999999999996 53.4432886777775  Z " fill-rule="nonzero" fill="#27364e" stroke="none" transform="matrix(1 0 0 1 565 270 )" />
    <path d="M 0 90.3677426733329  C 0 90.3677426733329  51.3729977116704 106.886577355555  132.133108131095 108.466241222901  C 212.89321855052 110.045905090247  223.595118647074 148.541580427222  263.757106237787 144.735443766658  C 303.919093828501 140.929307106093  320.567505720826 65.1036425711104  380.160183066362 65.1036425711105  C 439.752860411899 65.1036425711107  439.7528604119 86.4809580422216  515.827906976742 86.7756114748618  C 591.902953541585 87.070264907502  535.048270289812 89.9926093928025  641.519558485865 86.2933914019564  C 747.990846681917 82.5941734111104  706.892448512582 0  766.485125858118 0  C 826.077803203655 0  805.528604118991 53.4432886777775  897.999999999996 53.4432886777775  " stroke-width="2" stroke="#5b8ff9" fill="none" transform="matrix(1 0 0 1 565 270 )" />
  </g>
</svg>