<?xml version="1.0" encoding="utf-8"?>
<svg version="1.1" xmlns:xlink="http://www.w3.org/1999/xlink" width="35px" height="30px" xmlns="http://www.w3.org/2000/svg">
  <defs>
    <filter x="922px" y="481px" width="35px" height="30px" filterUnits="userSpaceOnUse" id="filter79">
      <feOffset dx="0" dy="1" in="SourceAlpha" result="shadowOffsetInner" />
      <feGaussianBlur stdDeviation="1" in="shadowOffsetInner" result="shadowGaussian" />
      <feComposite in2="shadowGaussian" operator="atop" in="SourceAlpha" result="shadowComposite" />
      <feColorMatrix type="matrix" values="0 0 0 0 0  0 0 0 0 0  0 0 0 0 0  0 0 0 0.349019607843137 0  " in="shadowComposite" />
    </filter>
    <g id="widget80">
      <path d="M 939.5 482  C 948.18 482  955 487.72  955 495  C 955 502.28  948.18 508  939.5 508  C 930.82 508  924 502.28  924 495  C 924 487.72  930.82 482  939.5 482  Z " fill-rule="nonzero" fill="#ffffff" stroke="none" />
      <path d="M 939.5 482.5  C 947.9 482.5  954.5 488  954.5 495  C 954.5 502  947.9 507.5  939.5 507.5  C 931.1 507.5  924.5 502  924.5 495  C 924.5 488  931.1 482.5  939.5 482.5  Z " stroke-width="1" stroke="#d9d9d9" fill="none" />
    </g>
  </defs>
  <g transform="matrix(1 0 0 1 -922 -481 )">
    <use xlink:href="#widget80" filter="url(#filter79)" />
    <use xlink:href="#widget80" />
  </g>
</svg>