<?xml version="1.0" encoding="utf-8"?>
<svg version="1.1" xmlns:xlink="http://www.w3.org/1999/xlink" width="35px" height="30px" xmlns="http://www.w3.org/2000/svg">
  <defs>
    <filter x="917px" y="461px" width="35px" height="30px" filterUnits="userSpaceOnUse" id="filter347">
      <feOffset dx="0" dy="1" in="SourceAlpha" result="shadowOffsetInner" />
      <feGaussianBlur stdDeviation="1" in="shadowOffsetInner" result="shadowGaussian" />
      <feComposite in2="shadowGaussian" operator="atop" in="SourceAlpha" result="shadowComposite" />
      <feColorMatrix type="matrix" values="0 0 0 0 0  0 0 0 0 0  0 0 0 0 0  0 0 0 0.349019607843137 0  " in="shadowComposite" />
    </filter>
    <g id="widget348">
      <path d="M 934.5 462  C 943.18 462  950 467.72  950 475  C 950 482.28  943.18 488  934.5 488  C 925.82 488  919 482.28  919 475  C 919 467.72  925.82 462  934.5 462  Z " fill-rule="nonzero" fill="#ffffff" stroke="none" />
      <path d="M 934.5 462.5  C 942.9 462.5  949.5 468  949.5 475  C 949.5 482  942.9 487.5  934.5 487.5  C 926.1 487.5  919.5 482  919.5 475  C 919.5 468  926.1 462.5  934.5 462.5  Z " stroke-width="1" stroke="#d9d9d9" fill="none" />
    </g>
  </defs>
  <g transform="matrix(1 0 0 1 -917 -461 )">
    <use xlink:href="#widget348" filter="url(#filter347)" />
    <use xlink:href="#widget348" />
  </g>
</svg>