<?xml version="1.0" encoding="utf-8"?>
<svg version="1.1" xmlns:xlink="http://www.w3.org/1999/xlink" width="1229px" height="152px" xmlns="http://www.w3.org/2000/svg">
  <g transform="matrix(1 0 0 1 -579 -260 )">
    <path d="M 1225.99999999999 54.9175862964748  L 0 92.8606459194938  C 0 92.8606459194938  70.137299771167 109.835172592949  180.395535154479 111.458413394567  C 290.653770537792 113.081654196185  305.264605190772 152.639279197628  360.096004729986 148.728145663669  C 414.927404269201 144.81701212971  437.656750572086 66.8996051247962  519.016018306637 66.8996051247963  C 600.375286041189 66.8996051247965  600.375286041191 88.8666396433863  704.237209302323 89.1694214465821  C 808.099132563455 89.4722032497779  730.477928034866 92.475164134673  875.838506351526 88.6738987509759  C 1021.19908466819 84.872633367279  965.089244851254 0  1046.44851258581 0  C 1127.80778032036 0  1099.7528604119 54.9175862964748  1225.99999999999 54.9175862964748  Z " fill-rule="nonzero" fill="#27364e" stroke="none" transform="matrix(1 0 0 1 580 261 )" />
    <path d="M 0 92.8606459194938  C 0 92.8606459194938  70.137299771167 109.835172592949  180.395535154479 111.458413394567  C 290.653770537792 113.081654196185  305.264605190772 152.639279197628  360.096004729986 148.728145663669  C 414.927404269201 144.81701212971  437.656750572086 66.8996051247962  519.016018306637 66.8996051247963  C 600.375286041189 66.8996051247965  600.375286041191 88.8666396433863  704.237209302323 89.1694214465821  C 808.099132563455 89.4722032497779  730.477928034866 92.475164134673  875.838506351526 88.6738987509759  C 1021.19908466819 84.872633367279  965.089244851254 0  1046.44851258581 0  C 1127.80778032036 0  1099.7528604119 54.9175862964748  1225.99999999999 54.9175862964748  " stroke-width="2" stroke="#5b8ff9" fill="none" transform="matrix(1 0 0 1 580 261 )" />
  </g>
</svg>