<?xml version="1.0" encoding="utf-8"?>
<svg version="1.1" xmlns:xlink="http://www.w3.org/1999/xlink" width="14px" height="14px" xmlns="http://www.w3.org/2000/svg">
  <g transform="matrix(1 0 0 1 -1735 -199 )">
    <path d="M 1742 199  C 1745.92 199  1749 202.08  1749 206  C 1749 209.92  1745.92 213  1742 213  C 1738.08 213  1735 209.92  1735 206  C 1735 202.08  1738.08 199  1742 199  Z " fill-rule="nonzero" fill="#ac0000" stroke="none" />
    <path d="M 1742 199.5  C 1745.64 199.5  1748.5 202.36  1748.5 206  C 1748.5 209.64  1745.64 212.5  1742 212.5  C 1738.36 212.5  1735.5 209.64  1735.5 206  C 1735.5 202.36  1738.36 199.5  1742 199.5  Z " stroke-width="1" stroke="#ac0000" fill="none" />
  </g>
</svg>