<?xml version="1.0" encoding="utf-8"?>
<svg version="1.1" xmlns:xlink="http://www.w3.org/1999/xlink" width="14px" height="14px" xmlns="http://www.w3.org/2000/svg">
  <g transform="matrix(1 0 0 1 -1735 -175 )">
    <path d="M 1742 175  C 1745.92 175  1749 178.08  1749 182  C 1749 185.92  1745.92 189  1742 189  C 1738.08 189  1735 185.92  1735 182  C 1735 178.08  1738.08 175  1742 175  Z " fill-rule="nonzero" fill="#06a273" stroke="none" />
    <path d="M 1742 175.5  C 1745.64 175.5  1748.5 178.36  1748.5 182  C 1748.5 185.64  1745.64 188.5  1742 188.5  C 1738.36 188.5  1735.5 185.64  1735.5 182  C 1735.5 178.36  1738.36 175.5  1742 175.5  Z " stroke-width="1" stroke="#06a273" fill="none" />
  </g>
</svg>