<?xml version="1.0" encoding="utf-8"?>
<svg version="1.1" xmlns:xlink="http://www.w3.org/1999/xlink" width="4px" height="2px" xmlns="http://www.w3.org/2000/svg">
  <defs>
    <mask fill="white" id="clip291">
      <path d="M 0 1  C 0 1.55228474979998  0.895430500400153 2  2 2  C 3.10456949959985 2  4 1.55228474979998  4 1  C 4 0.447715250200019  3.10456949959985 0  2 0  C 0.895430500400153 0  0 0.447715250200019  0 1  Z " fill-rule="evenodd" />
    </mask>
  </defs>
  <g transform="matrix(1 0 0 1 -1319 -167 )">
    <path d="M 0 1  C 0 1.55228474979998  0.895430500400153 2  2 2  C 3.10456949959985 2  4 1.55228474979998  4 1  C 4 0.447715250200019  3.10456949959985 0  2 0  C 0.895430500400153 0  0 0.447715250200019  0 1  Z " fill-rule="nonzero" fill="#5b8ff9" stroke="none" transform="matrix(1 0 0 1 1319 167 )" />
    <path d="M 0 1  C 0 1.55228474979998  0.895430500400153 2  2 2  C 3.10456949959985 2  4 1.55228474979998  4 1  C 4 0.447715250200019  3.10456949959985 0  2 0  C 0.895430500400153 0  0 0.447715250200019  0 1  Z " stroke-width="2" stroke="#ffffff" fill="none" stroke-opacity="0.949019607843137" transform="matrix(1 0 0 1 1319 167 )" mask="url(#clip291)" />
  </g>
</svg>