<?xml version="1.0" encoding="utf-8"?>
<svg version="1.1" xmlns:xlink="http://www.w3.org/1999/xlink" width="209px" height="31px" xmlns="http://www.w3.org/2000/svg">
  <g transform="matrix(1 0 0 1 -778 -11 )">
    <path d="M 779 16  A 4 4 0 0 1 783 12 L 982 12  A 4 4 0 0 1 986 16 L 986 37  A 4 4 0 0 1 982 41 L 783 41  A 4 4 0 0 1 779 37 L 779 16  Z " fill-rule="nonzero" fill="#ffffff" stroke="none" />
    <path d="M 778.5 16  A 4.5 4.5 0 0 1 783 11.5 L 982 11.5  A 4.5 4.5 0 0 1 986.5 16 L 986.5 37  A 4.5 4.5 0 0 1 982 41.5 L 783 41.5  A 4.5 4.5 0 0 1 778.5 37 L 778.5 16  Z " stroke-width="1" stroke="#999999" fill="none" stroke-opacity="0.207843137254902" />
  </g>
</svg>