<?xml version="1.0" encoding="utf-8"?>
<svg version="1.1" xmlns:xlink="http://www.w3.org/1999/xlink" width="1303px" height="141px" xmlns="http://www.w3.org/2000/svg">
  <g transform="matrix(1 0 0 1 -585 -223 )">
    <path d="M 0 141  L 0 9  L 46.0225634228817 9.38352136185722  L 101.019152405239 9.84182627004338  L 159.995950566766 10.3332995880564  L 219 9.84182627004338  L 268.998295623863 9.97433590970968  L 319.997861051349 10.1094991978498  L 373.999890968686 10.2526198669907  L 427.00080804276 10.393087303647  L 483.00109997603 10.5415039329077  L 532.996949936921 10.674007090875  L 587.997018872457 10.8197728459941  L 647 9  L 698.992893173748 8.78864677571664  L 752.999289724324 8.56910857835646  L 804.992036402391 8.35775594958386  L 865.998069083985 8.10976394681302  L 913.998114702791 7.91464181015135  L 969.002022910876 7.6910486873544  L 1029.00115775663 7.44714976521709  L 1074.99227006391 7.26019402413067  L 1131.01639558744 7.03245367647378  L 1139 7  L 1178 3  L 1234.99235823357 1.63218340239428  L 1303 0  L 1302 124  L 1101 131  L 760 138  L 0 141  Z " fill-rule="nonzero" fill="#304771" stroke="none" transform="matrix(1 0 0 1 585 223 )" />
  </g>
</svg>