<?xml version="1.0" encoding="utf-8"?>
<svg version="1.1" xmlns:xlink="http://www.w3.org/1999/xlink" width="8px" height="8px" xmlns="http://www.w3.org/2000/svg">
  <g transform="matrix(1 0 0 1 -585 -359 )">
    <path d="M 589 359  C 591.24 359  593 360.76  593 363  C 593 365.24  591.24 367  589 367  C 586.76 367  585 365.24  585 363  C 585 360.76  586.76 359  589 359  Z " fill-rule="nonzero" fill="#2fc25b" stroke="none" />
    <path d="M 589 359.5  C 590.96 359.5  592.5 361.04  592.5 363  C 592.5 364.96  590.96 366.5  589 366.5  C 587.04 366.5  585.5 364.96  585.5 363  C 585.5 361.04  587.04 359.5  589 359.5  Z " stroke-width="1" stroke="#ffffff" fill="none" />
  </g>
</svg>